<svg width="150" height="60" viewBox="0 0 150 60" fill="none" xmlns="http://www.w3.org/2000/svg">
<g filter="url(#filter0_d_14_29)">
<mask id="path-1-outside-1_14_29" maskUnits="userSpaceOnUse" x="58" y="0" width="52" height="52" fill="black">
<rect fill="white" x="58" width="52" height="52"/>
<path d="M108.272 44.8291L96.1383 46.1963L97.1149 18.9014L84.3463 40.3125L73.4333 27.1045C72.8473 29.79 72.2126 32.1908 71.529 34.3066C70.8454 36.4062 70.1211 38.2292 69.3561 39.7754C68.347 41.8262 67.1263 43.6654 65.694 45.293C64.2617 46.9368 62.626 48.3773 60.7868 49.6143L59.8102 47.5635C62.1051 45.8545 64.042 43.4538 65.6208 40.3613C67.2158 37.2689 68.4691 33.4847 69.3805 29.0088L74.6784 2.95898L87.3981 26.7383L98.7506 3.74023L104.219 3.93555L108.272 44.8291ZM84.6637 31.2793L75.8747 16.0938L74.6296 22.5879L83.2233 33.8428L84.6637 31.2793ZM103.096 26.3232V25.3711L101.778 25.8594C101.648 28.1706 101.339 30.4329 100.85 32.6465C100.378 34.8438 99.7353 36.984 98.9215 39.0674L101.363 39.458C101.965 37.0003 102.405 34.681 102.681 32.5C102.958 30.3027 103.096 28.2438 103.096 26.3232Z"/>
</mask>
<path d="M108.272 44.8291L96.1383 46.1963L97.1149 18.9014L84.3463 40.3125L73.4333 27.1045C72.8473 29.79 72.2126 32.1908 71.529 34.3066C70.8454 36.4062 70.1211 38.2292 69.3561 39.7754C68.347 41.8262 67.1263 43.6654 65.694 45.293C64.2617 46.9368 62.626 48.3773 60.7868 49.6143L59.8102 47.5635C62.1051 45.8545 64.042 43.4538 65.6208 40.3613C67.2158 37.2689 68.4691 33.4847 69.3805 29.0088L74.6784 2.95898L87.3981 26.7383L98.7506 3.74023L104.219 3.93555L108.272 44.8291ZM84.6637 31.2793L75.8747 16.0938L74.6296 22.5879L83.2233 33.8428L84.6637 31.2793ZM103.096 26.3232V25.3711L101.778 25.8594C101.648 28.1706 101.339 30.4329 100.85 32.6465C100.378 34.8438 99.7353 36.984 98.9215 39.0674L101.363 39.458C101.965 37.0003 102.405 34.681 102.681 32.5C102.958 30.3027 103.096 28.2438 103.096 26.3232Z" fill="black"/>
<path d="M108.272 44.8291L108.384 45.8228L109.365 45.7123L109.267 44.7305L108.272 44.8291ZM96.1383 46.1963L95.139 46.1605L95.0975 47.3199L96.2503 47.19L96.1383 46.1963ZM97.1149 18.9014L98.1143 18.9371L96.256 18.3892L97.1149 18.9014ZM84.3463 40.3125L83.5754 40.9495L84.4788 42.0428L85.2052 40.8247L84.3463 40.3125ZM73.4333 27.1045L74.2042 26.4675L72.8945 24.8825L72.4562 26.8913L73.4333 27.1045ZM71.529 34.3066L72.4798 34.6162L72.4805 34.6141L71.529 34.3066ZM69.3561 39.7754L68.4598 39.332L68.4589 39.3339L69.3561 39.7754ZM65.694 45.293L64.9433 44.6323L64.94 44.6361L65.694 45.293ZM60.7868 49.6143L59.8839 50.0442L60.3825 51.0913L61.3449 50.444L60.7868 49.6143ZM59.8102 47.5635L59.2129 46.7614L58.5543 47.2519L58.9074 47.9934L59.8102 47.5635ZM65.6208 40.3613L64.732 39.9029L64.7301 39.9066L65.6208 40.3613ZM69.3805 29.0088L70.3604 29.2083L70.3605 29.2081L69.3805 29.0088ZM74.6784 2.95898L75.5602 2.48732L74.2514 0.0406587L73.6984 2.75969L74.6784 2.95898ZM87.3981 26.7383L86.5163 27.2099L87.4338 28.9251L88.2948 27.1809L87.3981 26.7383ZM98.7506 3.74023L98.7863 2.74087L98.1402 2.71779L97.8539 3.2976L98.7506 3.74023ZM104.219 3.93555L105.215 3.83693L105.128 2.96737L104.255 2.93618L104.219 3.93555ZM84.6637 31.2793L85.5355 31.7692L85.8149 31.272L85.5292 30.7784L84.6637 31.2793ZM75.8747 16.0938L76.7402 15.5928L75.3973 13.2727L74.8926 15.9055L75.8747 16.0938ZM74.6296 22.5879L73.6474 22.3996L73.5632 22.8391L73.8348 23.1948L74.6296 22.5879ZM83.2233 33.8428L82.4285 34.4496L83.3507 35.6574L84.0951 34.3326L83.2233 33.8428ZM103.096 25.3711H104.096V23.9343L102.749 24.4333L103.096 25.3711ZM101.778 25.8594L101.431 24.9216L100.816 25.1491L100.78 25.8031L101.778 25.8594ZM100.85 32.6465L99.8737 32.4311L99.8726 32.4365L100.85 32.6465ZM98.9215 39.0674L97.9901 38.7035L97.5388 39.8589L98.7636 40.0548L98.9215 39.0674ZM101.363 39.458L101.205 40.4454L102.115 40.591L102.334 39.696L101.363 39.458ZM102.681 32.5L103.673 32.6259L103.673 32.6249L102.681 32.5ZM108.16 43.8354L96.0264 45.2026L96.2503 47.19L108.384 45.8228L108.16 43.8354ZM97.1377 46.232L98.1143 18.9371L96.1155 18.8656L95.139 46.1605L97.1377 46.232ZM96.256 18.3892L83.4875 39.8003L85.2052 40.8247L97.9738 19.4136L96.256 18.3892ZM85.1172 39.6755L74.2042 26.4675L72.6624 27.7414L83.5754 40.9495L85.1172 39.6755ZM72.4562 26.8913C71.8757 29.5521 71.249 31.9205 70.5774 33.9992L72.4805 34.6141C73.1761 32.461 73.8189 30.0279 74.4103 27.3177L72.4562 26.8913ZM70.5781 33.9971C69.9055 36.0628 69.1984 37.839 68.4598 39.332L70.2524 40.2188C71.0437 38.6194 71.7852 36.7497 72.4798 34.6162L70.5781 33.9971ZM68.4589 39.3339C67.4866 41.3098 66.3142 43.0745 64.9433 44.6323L66.4447 45.9536C67.9384 44.2562 69.2074 42.3426 70.2534 40.2169L68.4589 39.3339ZM64.94 44.6361C63.5662 46.2129 61.9965 47.5955 60.2287 48.7845L61.3449 50.444C63.2554 49.1591 64.9573 47.6608 66.448 45.9499L64.94 44.6361ZM61.6896 49.1843L60.7131 47.1335L58.9074 47.9934L59.8839 50.0442L61.6896 49.1843ZM60.4075 48.3655C62.8491 46.5473 64.8775 44.0165 66.5114 40.816L64.7301 39.9066C63.2065 42.8911 61.3612 45.1617 59.2129 46.7614L60.4075 48.3655ZM66.5095 40.8197C68.1575 37.6247 69.436 33.7479 70.3604 29.2083L68.4006 28.8092C67.5021 33.2215 66.2742 36.9131 64.732 39.9029L66.5095 40.8197ZM70.3605 29.2081L75.6583 3.15828L73.6984 2.75969L68.4006 28.8095L70.3605 29.2081ZM73.7966 3.43065L86.5163 27.2099L88.2799 26.2666L75.5602 2.48732L73.7966 3.43065ZM88.2948 27.1809L99.6473 4.18287L97.8539 3.2976L86.5014 26.2956L88.2948 27.1809ZM98.715 4.7396L104.184 4.93491L104.255 2.93618L98.7863 2.74087L98.715 4.7396ZM103.224 4.03417L107.277 44.9277L109.267 44.7305L105.215 3.83693L103.224 4.03417ZM85.5292 30.7784L76.7402 15.5928L75.0092 16.5947L83.7982 31.7802L85.5292 30.7784ZM74.8926 15.9055L73.6474 22.3996L75.6117 22.7762L76.8568 16.282L74.8926 15.9055ZM73.8348 23.1948L82.4285 34.4496L84.0181 33.2359L75.4243 21.981L73.8348 23.1948ZM84.0951 34.3326L85.5355 31.7692L83.7919 30.7894L82.3515 33.3529L84.0951 34.3326ZM104.096 26.3232V25.3711H102.096V26.3232H104.096ZM102.749 24.4333L101.431 24.9216L102.125 26.7971L103.444 26.3088L102.749 24.4333ZM100.78 25.8031C100.652 28.0619 100.35 30.271 99.8737 32.4311L101.827 32.8619C102.327 30.5949 102.643 28.2792 102.776 25.9156L100.78 25.8031ZM99.8726 32.4365C99.4118 34.5815 98.7843 36.6704 97.9901 38.7035L99.853 39.4312C100.686 37.2977 101.345 35.106 101.828 32.8565L99.8726 32.4365ZM98.7636 40.0548L101.205 40.4454L101.521 38.4706L99.0795 38.0799L98.7636 40.0548ZM102.334 39.696C102.944 37.2067 103.391 34.8497 103.673 32.6259L101.689 32.3741C101.418 34.5123 100.986 36.7939 100.392 39.22L102.334 39.696ZM103.673 32.6249C103.955 30.3924 104.096 28.2913 104.096 26.3232H102.096C102.096 28.1963 101.961 30.2131 101.689 32.3751L103.673 32.6249Z" fill="white" mask="url(#path-1-outside-1_14_29)"/>
</g>
<g filter="url(#filter1_d_14_29)">
<mask id="path-3-outside-2_14_29" maskUnits="userSpaceOnUse" x="41" y="1" width="31" height="47" fill="black">
<rect fill="white" x="41" y="1" width="31" height="47"/>
<path d="M60.2602 12.1143C60.2602 12.9281 59.9591 13.6279 59.3569 14.2139C58.7547 14.7998 58.0466 15.0928 57.2328 15.0928C56.4028 15.0928 55.6785 14.7998 55.06 14.2139C54.4578 13.6279 54.1567 12.9281 54.1567 12.1143C54.1567 11.2679 54.4496 10.5436 55.0356 9.94141C55.6378 9.33919 56.3702 9.03809 57.2328 9.03809C58.0629 9.03809 58.7709 9.33919 59.3569 9.94141C59.9591 10.5436 60.2602 11.2679 60.2602 12.1143ZM70.1967 44.292L61.7006 44.8291L60.3823 26.1035L51.7153 26.8604L52.4233 46.2451L43.0239 44.7559L44.8793 3.44727L50.3481 2.88574L51.3002 17.4609L63.7026 18.0225L63.3119 3.20312L69.7328 3.3252L68.4877 16.3623C68.2761 18.5433 68.1215 20.179 68.0239 21.2695C67.9262 22.3438 67.8774 22.8809 67.8774 22.8809C67.8774 23.4505 67.8937 24.0365 67.9262 24.6387C67.975 25.2246 68.0483 25.835 68.1459 26.4697C68.3087 27.5602 68.4226 28.4066 68.4877 29.0088C68.5691 29.5947 68.6179 29.9365 68.6342 30.0342L70.1967 44.292ZM64.02 22.1729L63.8979 20.5615L51.4223 19.707L51.5444 23.5645L64.02 22.1729Z"/>
</mask>
<path d="M60.2602 12.1143C60.2602 12.9281 59.9591 13.6279 59.3569 14.2139C58.7547 14.7998 58.0466 15.0928 57.2328 15.0928C56.4028 15.0928 55.6785 14.7998 55.06 14.2139C54.4578 13.6279 54.1567 12.9281 54.1567 12.1143C54.1567 11.2679 54.4496 10.5436 55.0356 9.94141C55.6378 9.33919 56.3702 9.03809 57.2328 9.03809C58.0629 9.03809 58.7709 9.33919 59.3569 9.94141C59.9591 10.5436 60.2602 11.2679 60.2602 12.1143ZM70.1967 44.292L61.7006 44.8291L60.3823 26.1035L51.7153 26.8604L52.4233 46.2451L43.0239 44.7559L44.8793 3.44727L50.3481 2.88574L51.3002 17.4609L63.7026 18.0225L63.3119 3.20312L69.7328 3.3252L68.4877 16.3623C68.2761 18.5433 68.1215 20.179 68.0239 21.2695C67.9262 22.3438 67.8774 22.8809 67.8774 22.8809C67.8774 23.4505 67.8937 24.0365 67.9262 24.6387C67.975 25.2246 68.0483 25.835 68.1459 26.4697C68.3087 27.5602 68.4226 28.4066 68.4877 29.0088C68.5691 29.5947 68.6179 29.9365 68.6342 30.0342L70.1967 44.292ZM64.02 22.1729L63.8979 20.5615L51.4223 19.707L51.5444 23.5645L64.02 22.1729Z" fill="black"/>
<path d="M55.06 14.2139L54.3626 14.9307L54.3723 14.9398L55.06 14.2139ZM55.0356 9.94141L54.3284 9.23423L54.3189 9.24405L55.0356 9.94141ZM59.3569 9.94141L58.6401 10.6388L58.6498 10.6485L59.3569 9.94141ZM70.1967 44.292L70.2598 45.29L71.3048 45.2239L71.1908 44.1831L70.1967 44.292ZM61.7006 44.8291L60.7031 44.8993L60.7728 45.8898L61.7637 45.8271L61.7006 44.8291ZM60.3823 26.1035L61.3798 26.0333L61.3084 25.0188L60.2953 25.1073L60.3823 26.1035ZM51.7153 26.8604L51.6283 25.8641L50.6812 25.9468L50.7159 26.8969L51.7153 26.8604ZM52.4233 46.2451L52.2668 47.2328L53.467 47.423L53.4226 46.2086L52.4233 46.2451ZM43.0239 44.7559L42.0249 44.711L41.9848 45.6037L42.8674 45.7435L43.0239 44.7559ZM44.8793 3.44727L44.7772 2.4525L43.919 2.54061L43.8803 3.40239L44.8793 3.44727ZM50.3481 2.88574L51.346 2.82055L51.2783 1.78497L50.2459 1.89097L50.3481 2.88574ZM51.3002 17.4609L50.3024 17.5261L50.3607 18.4194L51.255 18.4599L51.3002 17.4609ZM63.7026 18.0225L63.6573 19.0214L64.7305 19.07L64.7022 17.9961L63.7026 18.0225ZM63.3119 3.20312L63.331 2.20331L62.2847 2.18342L62.3123 3.22947L63.3119 3.20312ZM69.7328 3.3252L70.7283 3.42027L70.8309 2.34589L69.7519 2.32538L69.7328 3.3252ZM68.4877 16.3623L69.4831 16.4589L69.4832 16.4574L68.4877 16.3623ZM68.0239 21.2695L69.0198 21.3601L69.0199 21.3587L68.0239 21.2695ZM67.8774 22.8809L66.8815 22.7903L66.8774 22.8355V22.8809H67.8774ZM67.9262 24.6387L66.9277 24.6926L66.9284 24.7072L66.9297 24.7217L67.9262 24.6387ZM68.1459 26.4697L69.135 26.3221L69.1343 26.3177L68.1459 26.4697ZM68.4877 29.0088L67.4935 29.1163L67.4952 29.1313L67.4972 29.1464L68.4877 29.0088ZM68.6342 30.0342L69.6283 29.9252L69.6252 29.8974L69.6206 29.8698L68.6342 30.0342ZM64.02 22.1729L64.1308 23.1667L65.09 23.0597L65.0171 22.0973L64.02 22.1729ZM63.8979 20.5615L64.895 20.486L64.8297 19.623L63.9662 19.5639L63.8979 20.5615ZM51.4223 19.707L51.4906 18.7094L50.3878 18.6338L50.4228 19.7387L51.4223 19.707ZM51.5444 23.5645L50.5449 23.5961L50.5791 24.6783L51.6552 24.5583L51.5444 23.5645ZM59.2602 12.1143C59.2602 12.6484 59.0753 13.0926 58.6595 13.4971L60.0542 14.9306C60.8429 14.1633 61.2602 13.2077 61.2602 12.1143H59.2602ZM58.6595 13.4971C58.2372 13.908 57.7769 14.0928 57.2328 14.0928V16.0928C58.3164 16.0928 59.2721 15.6916 60.0542 14.9306L58.6595 13.4971ZM57.2328 14.0928C56.666 14.0928 56.1859 13.903 55.7477 13.4879L54.3723 14.9398C55.171 15.6966 56.1395 16.0928 57.2328 16.0928V14.0928ZM55.7573 13.4971C55.3416 13.0926 55.1567 12.6484 55.1567 12.1143H53.1567C53.1567 13.2077 53.574 14.1633 54.3626 14.9306L55.7573 13.4971ZM55.1567 12.1143C55.1567 11.5262 55.3495 11.0528 55.7523 10.6388L54.3189 9.24405C53.5498 10.0345 53.1567 11.0096 53.1567 12.1143H55.1567ZM55.7427 10.6485C56.1547 10.2365 56.6316 10.0381 57.2328 10.0381V8.03809C56.1088 8.03809 55.1209 8.44185 54.3285 9.2343L55.7427 10.6485ZM57.2328 10.0381C57.7893 10.0381 58.2399 10.2274 58.6401 10.6388L60.0736 9.24405C59.302 8.45102 58.3366 8.03809 57.2328 8.03809V10.0381ZM58.6498 10.6485C59.0658 11.0645 59.2602 11.535 59.2602 12.1143H61.2602C61.2602 11.0008 60.8524 10.0227 60.064 9.2343L58.6498 10.6485ZM70.1336 43.294L61.6375 43.8311L61.7637 45.8271L70.2598 45.29L70.1336 43.294ZM62.6982 44.7589L61.3798 26.0333L59.3847 26.1737L60.7031 44.8993L62.6982 44.7589ZM60.2953 25.1073L51.6283 25.8641L51.8023 27.8566L60.4693 27.0997L60.2953 25.1073ZM50.7159 26.8969L51.4239 46.2816L53.4226 46.2086L52.7146 26.8239L50.7159 26.8969ZM52.5798 45.2574L43.1804 43.7682L42.8674 45.7435L52.2668 47.2328L52.5798 45.2574ZM44.0229 44.8007L45.8783 3.49214L43.8803 3.40239L42.0249 44.711L44.0229 44.8007ZM44.9815 4.44204L50.4502 3.88051L50.2459 1.89097L44.7772 2.4525L44.9815 4.44204ZM49.3502 2.95093L50.3024 17.5261L52.2981 17.3957L51.346 2.82055L49.3502 2.95093ZM51.255 18.4599L63.6573 19.0214L63.7478 17.0235L51.3455 16.462L51.255 18.4599ZM64.7022 17.9961L64.3116 3.17678L62.3123 3.22947L62.7029 18.0488L64.7022 17.9961ZM63.2929 4.20294L69.7138 4.32501L69.7519 2.32538L63.331 2.20331L63.2929 4.20294ZM68.7374 3.23012L67.4923 16.2672L69.4832 16.4574L70.7283 3.42027L68.7374 3.23012ZM67.4924 16.2657C67.2808 18.4473 67.1258 20.086 67.0278 21.1803L69.0199 21.3587C69.1172 20.2721 69.2715 18.6393 69.4831 16.4589L67.4924 16.2657ZM67.028 21.179C67.0278 21.1811 67.0276 21.1832 67.0274 21.1853C67.0272 21.1874 67.027 21.1895 67.0268 21.1916C67.0266 21.1936 67.0264 21.1957 67.0263 21.1978C67.0261 21.1999 67.0259 21.202 67.0257 21.2041C67.0255 21.2062 67.0253 21.2082 67.0251 21.2103C67.0249 21.2124 67.0247 21.2145 67.0246 21.2165C67.0244 21.2186 67.0242 21.2207 67.024 21.2228C67.0238 21.2248 67.0236 21.2269 67.0234 21.229C67.0232 21.231 67.0231 21.2331 67.0229 21.2351C67.0227 21.2372 67.0225 21.2393 67.0223 21.2413C67.0221 21.2434 67.0219 21.2454 67.0217 21.2475C67.0216 21.2495 67.0214 21.2516 67.0212 21.2536C67.021 21.2557 67.0208 21.2577 67.0206 21.2598C67.0204 21.2618 67.0203 21.2639 67.0201 21.2659C67.0199 21.268 67.0197 21.27 67.0195 21.272C67.0193 21.2741 67.0191 21.2761 67.019 21.2781C67.0188 21.2802 67.0186 21.2822 67.0184 21.2842C67.0182 21.2862 67.018 21.2883 67.0179 21.2903C67.0177 21.2923 67.0175 21.2943 67.0173 21.2964C67.0171 21.2984 67.0169 21.3004 67.0167 21.3024C67.0166 21.3044 67.0164 21.3065 67.0162 21.3085C67.016 21.3105 67.0158 21.3125 67.0157 21.3145C67.0155 21.3165 67.0153 21.3185 67.0151 21.3205C67.0149 21.3225 67.0147 21.3245 67.0146 21.3265C67.0144 21.3285 67.0142 21.3305 67.014 21.3325C67.0138 21.3345 67.0137 21.3365 67.0135 21.3385C67.0133 21.3405 67.0131 21.3425 67.0129 21.3445C67.0127 21.3464 67.0126 21.3484 67.0124 21.3504C67.0122 21.3524 67.012 21.3544 67.0118 21.3564C67.0117 21.3583 67.0115 21.3603 67.0113 21.3623C67.0111 21.3643 67.0109 21.3662 67.0108 21.3682C67.0106 21.3702 67.0104 21.3722 67.0102 21.3741C67.0101 21.3761 67.0099 21.378 67.0097 21.38C67.0095 21.382 67.0093 21.3839 67.0092 21.3859C67.009 21.3879 67.0088 21.3898 67.0086 21.3918C67.0084 21.3937 67.0083 21.3957 67.0081 21.3976C67.0079 21.3996 67.0077 21.4015 67.0076 21.4035C67.0074 21.4054 67.0072 21.4074 67.007 21.4093C67.0069 21.4112 67.0067 21.4132 67.0065 21.4151C67.0063 21.4171 67.0062 21.419 67.006 21.4209C67.0058 21.4229 67.0056 21.4248 67.0054 21.4267C67.0053 21.4287 67.0051 21.4306 67.0049 21.4325C67.0047 21.4344 67.0046 21.4364 67.0044 21.4383C67.0042 21.4402 67.004 21.4421 67.0039 21.444C67.0037 21.446 67.0035 21.4479 67.0034 21.4498C67.0032 21.4517 67.003 21.4536 67.0028 21.4555C67.0027 21.4574 67.0025 21.4593 67.0023 21.4612C67.0021 21.4632 67.002 21.4651 67.0018 21.467C67.0016 21.4689 67.0014 21.4708 67.0013 21.4727C67.0011 21.4746 67.0009 21.4764 67.0008 21.4783C67.0006 21.4802 67.0004 21.4821 67.0002 21.484C67.0001 21.4859 66.9999 21.4878 66.9997 21.4897C66.9996 21.4916 66.9994 21.4934 66.9992 21.4953C66.999 21.4972 66.9989 21.4991 66.9987 21.501C66.9985 21.5028 66.9984 21.5047 66.9982 21.5066C66.998 21.5085 66.9978 21.5103 66.9977 21.5122C66.9975 21.5141 66.9973 21.5159 66.9972 21.5178C66.997 21.5197 66.9968 21.5215 66.9967 21.5234C66.9965 21.5252 66.9963 21.5271 66.9962 21.529C66.996 21.5308 66.9958 21.5327 66.9956 21.5345C66.9955 21.5364 66.9953 21.5382 66.9951 21.5401C66.995 21.5419 66.9948 21.5438 66.9946 21.5456C66.9945 21.5475 66.9943 21.5493 66.9941 21.5511C66.994 21.553 66.9938 21.5548 66.9936 21.5567C66.9935 21.5585 66.9933 21.5603 66.9931 21.5622C66.993 21.564 66.9928 21.5658 66.9926 21.5676C66.9925 21.5695 66.9923 21.5713 66.9921 21.5731C66.992 21.5749 66.9918 21.5768 66.9916 21.5786C66.9915 21.5804 66.9913 21.5822 66.9911 21.584C66.991 21.5858 66.9908 21.5877 66.9907 21.5895C66.9905 21.5913 66.9903 21.5931 66.9902 21.5949C66.99 21.5967 66.9898 21.5985 66.9897 21.6003C66.9895 21.6021 66.9893 21.6039 66.9892 21.6057C66.989 21.6075 66.9888 21.6093 66.9887 21.6111C66.9885 21.6129 66.9884 21.6147 66.9882 21.6165C66.988 21.6183 66.9879 21.6201 66.9877 21.6219C66.9875 21.6236 66.9874 21.6254 66.9872 21.6272C66.9871 21.629 66.9869 21.6308 66.9867 21.6326C66.9866 21.6343 66.9864 21.6361 66.9863 21.6379C66.9861 21.6397 66.9859 21.6414 66.9858 21.6432C66.9856 21.645 66.9854 21.6467 66.9853 21.6485C66.9851 21.6503 66.985 21.652 66.9848 21.6538C66.9846 21.6556 66.9845 21.6573 66.9843 21.6591C66.9842 21.6608 66.984 21.6626 66.9838 21.6643C66.9837 21.6661 66.9835 21.6678 66.9834 21.6696C66.9832 21.6713 66.9831 21.6731 66.9829 21.6748C66.9827 21.6766 66.9826 21.6783 66.9824 21.6801C66.9823 21.6818 66.9821 21.6836 66.9819 21.6853C66.9818 21.687 66.9816 21.6888 66.9815 21.6905C66.9813 21.6922 66.9812 21.694 66.981 21.6957C66.9808 21.6974 66.9807 21.6991 66.9805 21.7009C66.9804 21.7026 66.9802 21.7043 66.9801 21.706C66.9799 21.7078 66.9797 21.7095 66.9796 21.7112C66.9794 21.7129 66.9793 21.7146 66.9791 21.7163C66.979 21.7181 66.9788 21.7198 66.9787 21.7215C66.9785 21.7232 66.9783 21.7249 66.9782 21.7266C66.978 21.7283 66.9779 21.73 66.9777 21.7317C66.9776 21.7334 66.9774 21.7351 66.9773 21.7368C66.9771 21.7385 66.977 21.7402 66.9768 21.7419C66.9766 21.7436 66.9765 21.7453 66.9763 21.747C66.9762 21.7486 66.976 21.7503 66.9759 21.752C66.9757 21.7537 66.9756 21.7554 66.9754 21.7571C66.9753 21.7587 66.9751 21.7604 66.975 21.7621C66.9748 21.7638 66.9747 21.7654 66.9745 21.7671C66.9744 21.7688 66.9742 21.7705 66.974 21.7721C66.9739 21.7738 66.9737 21.7755 66.9736 21.7771C66.9734 21.7788 66.9733 21.7804 66.9731 21.7821C66.973 21.7838 66.9728 21.7854 66.9727 21.7871C66.9725 21.7887 66.9724 21.7904 66.9722 21.792C66.9721 21.7937 66.9719 21.7953 66.9718 21.797C66.9716 21.7986 66.9715 21.8003 66.9713 21.8019C66.9712 21.8036 66.971 21.8052 66.9709 21.8068C66.9707 21.8085 66.9706 21.8101 66.9704 21.8118C66.9703 21.8134 66.9701 21.815 66.97 21.8167C66.9699 21.8183 66.9697 21.8199 66.9696 21.8215C66.9694 21.8232 66.9693 21.8248 66.9691 21.8264C66.969 21.828 66.9688 21.8297 66.9687 21.8313C66.9685 21.8329 66.9684 21.8345 66.9682 21.8361C66.9681 21.8377 66.9679 21.8394 66.9678 21.841C66.9676 21.8426 66.9675 21.8442 66.9674 21.8458C66.9672 21.8474 66.9671 21.849 66.9669 21.8506C66.9668 21.8522 66.9666 21.8538 66.9665 21.8554C66.9663 21.857 66.9662 21.8586 66.966 21.8602C66.9659 21.8618 66.9658 21.8634 66.9656 21.865C66.9655 21.8666 66.9653 21.8681 66.9652 21.8697C66.965 21.8713 66.9649 21.8729 66.9647 21.8745C66.9646 21.8761 66.9645 21.8776 66.9643 21.8792C66.9642 21.8808 66.964 21.8824 66.9639 21.884C66.9637 21.8855 66.9636 21.8871 66.9635 21.8887C66.9633 21.8902 66.9632 21.8918 66.963 21.8934C66.9629 21.8949 66.9627 21.8965 66.9626 21.8981C66.9625 21.8996 66.9623 21.9012 66.9622 21.9027C66.962 21.9043 66.9619 21.9058 66.9617 21.9074C66.9616 21.909 66.9615 21.9105 66.9613 21.9121C66.9612 21.9136 66.961 21.9152 66.9609 21.9167C66.9608 21.9182 66.9606 21.9198 66.9605 21.9213C66.9603 21.9229 66.9602 21.9244 66.9601 21.9259C66.9599 21.9275 66.9598 21.929 66.9596 21.9305C66.9595 21.9321 66.9594 21.9336 66.9592 21.9351C66.9591 21.9367 66.959 21.9382 66.9588 21.9397C66.9587 21.9412 66.9585 21.9428 66.9584 21.9443C66.9583 21.9458 66.9581 21.9473 66.958 21.9488C66.9578 21.9504 66.9577 21.9519 66.9576 21.9534C66.9574 21.9549 66.9573 21.9564 66.9572 21.9579C66.957 21.9594 66.9569 21.9609 66.9567 21.9624C66.9566 21.9639 66.9565 21.9654 66.9563 21.9669C66.9562 21.9684 66.9561 21.9699 66.9559 21.9714C66.9558 21.9729 66.9557 21.9744 66.9555 21.9759C66.9554 21.9774 66.9553 21.9789 66.9551 21.9804C66.955 21.9819 66.9548 21.9833 66.9547 21.9848C66.9546 21.9863 66.9544 21.9878 66.9543 21.9893C66.9542 21.9908 66.954 21.9922 66.9539 21.9937C66.9538 21.9952 66.9536 21.9967 66.9535 21.9981C66.9534 21.9996 66.9532 22.0011 66.9531 22.0025C66.953 22.004 66.9528 22.0055 66.9527 22.0069C66.9526 22.0084 66.9524 22.0099 66.9523 22.0113C66.9522 22.0128 66.952 22.0142 66.9519 22.0157C66.9518 22.0171 66.9516 22.0186 66.9515 22.02C66.9514 22.0215 66.9512 22.0229 66.9511 22.0244C66.951 22.0258 66.9509 22.0273 66.9507 22.0287C66.9506 22.0302 66.9505 22.0316 66.9503 22.033C66.9502 22.0345 66.9501 22.0359 66.9499 22.0373C66.9498 22.0388 66.9497 22.0402 66.9495 22.0416C66.9494 22.0431 66.9493 22.0445 66.9492 22.0459C66.949 22.0474 66.9489 22.0488 66.9488 22.0502C66.9486 22.0516 66.9485 22.053 66.9484 22.0545C66.9483 22.0559 66.9481 22.0573 66.948 22.0587C66.9479 22.0601 66.9477 22.0615 66.9476 22.0629C66.9475 22.0644 66.9474 22.0658 66.9472 22.0672C66.9471 22.0686 66.947 22.07 66.9468 22.0714C66.9467 22.0728 66.9466 22.0742 66.9465 22.0756C66.9463 22.077 66.9462 22.0784 66.9461 22.0798C66.946 22.0812 66.9458 22.0825 66.9457 22.0839C66.9456 22.0853 66.9454 22.0867 66.9453 22.0881C66.9452 22.0895 66.9451 22.0909 66.9449 22.0922C66.9448 22.0936 66.9447 22.095 66.9446 22.0964C66.9444 22.0978 66.9443 22.0991 66.9442 22.1005C66.9441 22.1019 66.9439 22.1033 66.9438 22.1046C66.9437 22.106 66.9436 22.1074 66.9434 22.1087C66.9433 22.1101 66.9432 22.1114 66.9431 22.1128C66.943 22.1142 66.9428 22.1155 66.9427 22.1169C66.9426 22.1182 66.9425 22.1196 66.9423 22.1209C66.9422 22.1223 66.9421 22.1236 66.942 22.125C66.9418 22.1263 66.9417 22.1277 66.9416 22.129C66.9415 22.1304 66.9414 22.1317 66.9412 22.1331C66.9411 22.1344 66.941 22.1357 66.9409 22.1371C66.9407 22.1384 66.9406 22.1397 66.9405 22.1411C66.9404 22.1424 66.9403 22.1437 66.9401 22.1451C66.94 22.1464 66.9399 22.1477 66.9398 22.149C66.9397 22.1504 66.9395 22.1517 66.9394 22.153C66.9393 22.1543 66.9392 22.1556 66.9391 22.157C66.9389 22.1583 66.9388 22.1596 66.9387 22.1609C66.9386 22.1622 66.9385 22.1635 66.9383 22.1648C66.9382 22.1661 66.9381 22.1674 66.938 22.1687C66.9379 22.17 66.9378 22.1713 66.9376 22.1726C66.9375 22.1739 66.9374 22.1752 66.9373 22.1765C66.9372 22.1778 66.937 22.1791 66.9369 22.1804C66.9368 22.1817 66.9367 22.183 66.9366 22.1843C66.9365 22.1856 66.9363 22.1869 66.9362 22.1881C66.9361 22.1894 66.936 22.1907 66.9359 22.192C66.9358 22.1933 66.9356 22.1945 66.9355 22.1958C66.9354 22.1971 66.9353 22.1984 66.9352 22.1996C66.9351 22.2009 66.935 22.2022 66.9348 22.2034C66.9347 22.2047 66.9346 22.206 66.9345 22.2072C66.9344 22.2085 66.9343 22.2097 66.9342 22.211C66.934 22.2123 66.9339 22.2135 66.9338 22.2148C66.9337 22.216 66.9336 22.2173 66.9335 22.2185C66.9334 22.2198 66.9332 22.221 66.9331 22.2223C66.933 22.2235 66.9329 22.2248 66.9328 22.226C66.9327 22.2272 66.9326 22.2285 66.9324 22.2297C66.9323 22.231 66.9322 22.2322 66.9321 22.2334C66.932 22.2347 66.9319 22.2359 66.9318 22.2371C66.9317 22.2383 66.9316 22.2396 66.9314 22.2408C66.9313 22.242 66.9312 22.2432 66.9311 22.2445C66.931 22.2457 66.9309 22.2469 66.9308 22.2481C66.9307 22.2493 66.9306 22.2506 66.9304 22.2518C66.9303 22.253 66.9302 22.2542 66.9301 22.2554C66.93 22.2566 66.9299 22.2578 66.9298 22.259C66.9297 22.2602 66.9296 22.2614 66.9295 22.2626C66.9293 22.2638 66.9292 22.265 66.9291 22.2662C66.929 22.2674 66.9289 22.2686 66.9288 22.2698C66.9287 22.271 66.9286 22.2722 66.9285 22.2734C66.9284 22.2746 66.9283 22.2758 66.9282 22.2769C66.928 22.2781 66.9279 22.2793 66.9278 22.2805C66.9277 22.2817 66.9276 22.2828 66.9275 22.284C66.9274 22.2852 66.9273 22.2864 66.9272 22.2875C66.9271 22.2887 66.927 22.2899 66.9269 22.2911C66.9268 22.2922 66.9267 22.2934 66.9266 22.2946C66.9264 22.2957 66.9263 22.2969 66.9262 22.298C66.9261 22.2992 66.926 22.3004 66.9259 22.3015C66.9258 22.3027 66.9257 22.3038 66.9256 22.305C66.9255 22.3061 66.9254 22.3073 66.9253 22.3084C66.9252 22.3096 66.9251 22.3107 66.925 22.3119C66.9249 22.313 66.9248 22.3141 66.9247 22.3153C66.9246 22.3164 66.9245 22.3176 66.9244 22.3187C66.9243 22.3198 66.9242 22.321 66.9241 22.3221C66.9239 22.3232 66.9238 22.3244 66.9237 22.3255C66.9236 22.3266 66.9235 22.3277 66.9234 22.3289C66.9233 22.33 66.9232 22.3311 66.9231 22.3322C66.923 22.3333 66.9229 22.3344 66.9228 22.3356C66.9227 22.3367 66.9226 22.3378 66.9225 22.3389C66.9224 22.34 66.9223 22.3411 66.9222 22.3422C66.9221 22.3433 66.922 22.3444 66.9219 22.3455C66.9218 22.3466 66.9217 22.3477 66.9216 22.3488C66.9215 22.3499 66.9214 22.351 66.9213 22.3521C66.9212 22.3532 66.9211 22.3543 66.921 22.3554C66.9209 22.3565 66.9208 22.3576 66.9207 22.3587C66.9206 22.3598 66.9205 22.3608 66.9204 22.3619C66.9203 22.363 66.9202 22.3641 66.9201 22.3652C66.92 22.3662 66.9199 22.3673 66.9198 22.3684C66.9197 22.3695 66.9196 22.3705 66.9195 22.3716C66.9195 22.3727 66.9194 22.3737 66.9193 22.3748C66.9192 22.3759 66.9191 22.3769 66.919 22.378C66.9189 22.3791 66.9188 22.3801 66.9187 22.3812C66.9186 22.3822 66.9185 22.3833 66.9184 22.3843C66.9183 22.3854 66.9182 22.3864 66.9181 22.3875C66.918 22.3885 66.9179 22.3896 66.9178 22.3906C66.9177 22.3917 66.9176 22.3927 66.9175 22.3938C66.9174 22.3948 66.9173 22.3958 66.9173 22.3969C66.9172 22.3979 66.9171 22.3989 66.917 22.4C66.9169 22.401 66.9168 22.402 66.9167 22.4031C66.9166 22.4041 66.9165 22.4051 66.9164 22.4062C66.9163 22.4072 66.9162 22.4082 66.9161 22.4092C66.916 22.4102 66.9159 22.4113 66.9159 22.4123C66.9158 22.4133 66.9157 22.4143 66.9156 22.4153C66.9155 22.4163 66.9154 22.4173 66.9153 22.4183C66.9152 22.4194 66.9151 22.4204 66.915 22.4214C66.9149 22.4224 66.9148 22.4234 66.9148 22.4244C66.9147 22.4254 66.9146 22.4264 66.9145 22.4274C66.9144 22.4284 66.9143 22.4294 66.9142 22.4303C66.9141 22.4313 66.914 22.4323 66.9139 22.4333C66.9138 22.4343 66.9138 22.4353 66.9137 22.4363C66.9136 22.4373 66.9135 22.4382 66.9134 22.4392C66.9133 22.4402 66.9132 22.4412 66.9131 22.4421C66.913 22.4431 66.913 22.4441 66.9129 22.4451C66.9128 22.446 66.9127 22.447 66.9126 22.448C66.9125 22.4489 66.9124 22.4499 66.9123 22.4509C66.9123 22.4518 66.9122 22.4528 66.9121 22.4538C66.912 22.4547 66.9119 22.4557 66.9118 22.4566C66.9117 22.4576 66.9116 22.4585 66.9116 22.4595C66.9115 22.4604 66.9114 22.4614 66.9113 22.4623C66.9112 22.4633 66.9111 22.4642 66.911 22.4652C66.911 22.4661 66.9109 22.467 66.9108 22.468C66.9107 22.4689 66.9106 22.4699 66.9105 22.4708C66.9104 22.4717 66.9104 22.4727 66.9103 22.4736C66.9102 22.4745 66.9101 22.4754 66.91 22.4764C66.9099 22.4773 66.9099 22.4782 66.9098 22.4791C66.9097 22.4801 66.9096 22.481 66.9095 22.4819C66.9094 22.4828 66.9094 22.4837 66.9093 22.4847C66.9092 22.4856 66.9091 22.4865 66.909 22.4874C66.9089 22.4883 66.9089 22.4892 66.9088 22.4901C66.9087 22.491 66.9086 22.4919 66.9085 22.4928C66.9084 22.4937 66.9084 22.4946 66.9083 22.4955C66.9082 22.4964 66.9081 22.4973 66.908 22.4982C66.908 22.4991 66.9079 22.5 66.9078 22.5009C66.9077 22.5018 66.9076 22.5027 66.9076 22.5035C66.9075 22.5044 66.9074 22.5053 66.9073 22.5062C66.9072 22.5071 66.9072 22.508 66.9071 22.5088C66.907 22.5097 66.9069 22.5106 66.9068 22.5115C66.9068 22.5123 66.9067 22.5132 66.9066 22.5141C66.9065 22.5149 66.9064 22.5158 66.9064 22.5167C66.9063 22.5175 66.9062 22.5184 66.9061 22.5193C66.906 22.5201 66.906 22.521 66.9059 22.5218C66.9058 22.5227 66.9057 22.5235 66.9057 22.5244C66.9056 22.5252 66.9055 22.5261 66.9054 22.5269C66.9054 22.5278 66.9053 22.5286 66.9052 22.5295C66.9051 22.5303 66.905 22.5312 66.905 22.532C66.9049 22.5328 66.9048 22.5337 66.9047 22.5345C66.9047 22.5354 66.9046 22.5362 66.9045 22.537C66.9044 22.5379 66.9044 22.5387 66.9043 22.5395C66.9042 22.5403 66.9041 22.5412 66.9041 22.542C66.904 22.5428 66.9039 22.5436 66.9038 22.5445C66.9038 22.5453 66.9037 22.5461 66.9036 22.5469C66.9035 22.5477 66.9035 22.5485 66.9034 22.5493C66.9033 22.5502 66.9032 22.551 66.9032 22.5518C66.9031 22.5526 66.903 22.5534 66.903 22.5542C66.9029 22.555 66.9028 22.5558 66.9027 22.5566C66.9027 22.5574 66.9026 22.5582 66.9025 22.559C66.9024 22.5598 66.9024 22.5606 66.9023 22.5614C66.9022 22.5622 66.9022 22.5629 66.9021 22.5637C66.902 22.5645 66.9019 22.5653 66.9019 22.5661C66.9018 22.5669 66.9017 22.5676 66.9017 22.5684C66.9016 22.5692 66.9015 22.57 66.9014 22.5708C66.9014 22.5715 66.9013 22.5723 66.9012 22.5731C66.9012 22.5738 66.9011 22.5746 66.901 22.5754C66.901 22.5761 66.9009 22.5769 66.9008 22.5777C66.9007 22.5784 66.9007 22.5792 66.9006 22.58C66.9005 22.5807 66.9005 22.5815 66.9004 22.5822C66.9003 22.583 66.9003 22.5837 66.9002 22.5845C66.9001 22.5852 66.9001 22.586 66.9 22.5867C66.8999 22.5875 66.8999 22.5882 66.8998 22.589C66.8997 22.5897 66.8997 22.5904 66.8996 22.5912C66.8995 22.5919 66.8995 22.5926 66.8994 22.5934C66.8993 22.5941 66.8993 22.5948 66.8992 22.5956C66.8991 22.5963 66.8991 22.597 66.899 22.5978C66.8989 22.5985 66.8989 22.5992 66.8988 22.5999C66.8987 22.6006 66.8987 22.6014 66.8986 22.6021C66.8985 22.6028 66.8985 22.6035 66.8984 22.6042C66.8983 22.6049 66.8983 22.6056 66.8982 22.6064C66.8981 22.6071 66.8981 22.6078 66.898 22.6085C66.898 22.6092 66.8979 22.6099 66.8978 22.6106C66.8978 22.6113 66.8977 22.612 66.8976 22.6127C66.8976 22.6134 66.8975 22.6141 66.8974 22.6148C66.8974 22.6155 66.8973 22.6161 66.8973 22.6168C66.8972 22.6175 66.8971 22.6182 66.8971 22.6189C66.897 22.6196 66.8969 22.6203 66.8969 22.6209C66.8968 22.6216 66.8968 22.6223 66.8967 22.623C66.8966 22.6237 66.8966 22.6243 66.8965 22.625C66.8965 22.6257 66.8964 22.6263 66.8963 22.627C66.8963 22.6277 66.8962 22.6283 66.8961 22.629C66.8961 22.6297 66.896 22.6303 66.896 22.631C66.8959 22.6317 66.8958 22.6323 66.8958 22.633C66.8957 22.6336 66.8957 22.6343 66.8956 22.6349C66.8956 22.6356 66.8955 22.6362 66.8954 22.6369C66.8954 22.6375 66.8953 22.6382 66.8953 22.6388C66.8952 22.6395 66.8951 22.6401 66.8951 22.6407C66.895 22.6414 66.895 22.642 66.8949 22.6426C66.8949 22.6433 66.8948 22.6439 66.8947 22.6445C66.8947 22.6452 66.8946 22.6458 66.8946 22.6464C66.8945 22.6471 66.8945 22.6477 66.8944 22.6483C66.8943 22.6489 66.8943 22.6496 66.8942 22.6502C66.8942 22.6508 66.8941 22.6514 66.8941 22.652C66.894 22.6526 66.8939 22.6532 66.8939 22.6539C66.8938 22.6545 66.8938 22.6551 66.8937 22.6557C66.8937 22.6563 66.8936 22.6569 66.8936 22.6575C66.8935 22.6581 66.8934 22.6587 66.8934 22.6593C66.8933 22.6599 66.8933 22.6605 66.8932 22.6611C66.8932 22.6617 66.8931 22.6623 66.8931 22.6629C66.893 22.6635 66.893 22.664 66.8929 22.6646C66.8929 22.6652 66.8928 22.6658 66.8928 22.6664C66.8927 22.667 66.8926 22.6675 66.8926 22.6681C66.8925 22.6687 66.8925 22.6693 66.8924 22.6698C66.8924 22.6704 66.8923 22.671 66.8923 22.6716C66.8922 22.6721 66.8922 22.6727 66.8921 22.6733C66.8921 22.6738 66.892 22.6744 66.892 22.675C66.8919 22.6755 66.8919 22.6761 66.8918 22.6766C66.8918 22.6772 66.8917 22.6777 66.8917 22.6783C66.8916 22.6789 66.8916 22.6794 66.8915 22.68C66.8915 22.6805 66.8914 22.681 66.8914 22.6816C66.8913 22.6821 66.8913 22.6827 66.8912 22.6832C66.8912 22.6838 66.8911 22.6843 66.8911 22.6848C66.891 22.6854 66.891 22.6859 66.8909 22.6864C66.8909 22.687 66.8908 22.6875 66.8908 22.688C66.8907 22.6886 66.8907 22.6891 66.8906 22.6896C66.8906 22.6901 66.8905 22.6907 66.8905 22.6912C66.8904 22.6917 66.8904 22.6922 66.8904 22.6927C66.8903 22.6933 66.8903 22.6938 66.8902 22.6943C66.8902 22.6948 66.8901 22.6953 66.8901 22.6958C66.89 22.6963 66.89 22.6968 66.8899 22.6973C66.8899 22.6978 66.8898 22.6983 66.8898 22.6988C66.8898 22.6993 66.8897 22.6998 66.8897 22.7003C66.8896 22.7008 66.8896 22.7013 66.8895 22.7018C66.8895 22.7023 66.8894 22.7028 66.8894 22.7033C66.8894 22.7038 66.8893 22.7043 66.8893 22.7047C66.8892 22.7052 66.8892 22.7057 66.8891 22.7062C66.8891 22.7067 66.889 22.7071 66.889 22.7076C66.889 22.7081 66.8889 22.7086 66.8889 22.709C66.8888 22.7095 66.8888 22.71 66.8887 22.7104C66.8887 22.7109 66.8887 22.7114 66.8886 22.7118C66.8886 22.7123 66.8885 22.7128 66.8885 22.7132C66.8885 22.7137 66.8884 22.7141 66.8884 22.7146C66.8883 22.715 66.8883 22.7155 66.8882 22.7159C66.8882 22.7164 66.8882 22.7168 66.8881 22.7173C66.8881 22.7177 66.888 22.7182 66.888 22.7186C66.888 22.7191 66.8879 22.7195 66.8879 22.7199C66.8878 22.7204 66.8878 22.7208 66.8878 22.7213C66.8877 22.7217 66.8877 22.7221 66.8876 22.7226C66.8876 22.723 66.8876 22.7234 66.8875 22.7238C66.8875 22.7243 66.8875 22.7247 66.8874 22.7251C66.8874 22.7255 66.8873 22.726 66.8873 22.7264C66.8873 22.7268 66.8872 22.7272 66.8872 22.7276C66.8871 22.728 66.8871 22.7284 66.8871 22.7289C66.887 22.7293 66.887 22.7297 66.887 22.7301C66.8869 22.7305 66.8869 22.7309 66.8869 22.7313C66.8868 22.7317 66.8868 22.7321 66.8867 22.7325C66.8867 22.7329 66.8867 22.7333 66.8866 22.7337C66.8866 22.7341 66.8866 22.7345 66.8865 22.7348C66.8865 22.7352 66.8865 22.7356 66.8864 22.736C66.8864 22.7364 66.8864 22.7368 66.8863 22.7372C66.8863 22.7375 66.8862 22.7379 66.8862 22.7383C66.8862 22.7387 66.8861 22.739 66.8861 22.7394C66.8861 22.7398 66.886 22.7402 66.886 22.7405C66.886 22.7409 66.8859 22.7413 66.8859 22.7416C66.8859 22.742 66.8858 22.7424 66.8858 22.7427C66.8858 22.7431 66.8857 22.7434 66.8857 22.7438C66.8857 22.7442 66.8856 22.7445 66.8856 22.7449C66.8856 22.7452 66.8856 22.7456 66.8855 22.7459C66.8855 22.7463 66.8855 22.7466 66.8854 22.747C66.8854 22.7473 66.8854 22.7476 66.8853 22.748C66.8853 22.7483 66.8853 22.7487 66.8852 22.749C66.8852 22.7493 66.8852 22.7497 66.8852 22.75C66.8851 22.7503 66.8851 22.7507 66.8851 22.751C66.885 22.7513 66.885 22.7516 66.885 22.752C66.8849 22.7523 66.8849 22.7526 66.8849 22.7529C66.8849 22.7532 66.8848 22.7536 66.8848 22.7539C66.8848 22.7542 66.8847 22.7545 66.8847 22.7548C66.8847 22.7551 66.8847 22.7554 66.8846 22.7557C66.8846 22.7561 66.8846 22.7564 66.8845 22.7567C66.8845 22.757 66.8845 22.7573 66.8845 22.7576C66.8844 22.7579 66.8844 22.7582 66.8844 22.7585C66.8844 22.7588 66.8843 22.759 66.8843 22.7593C66.8843 22.7596 66.8842 22.7599 66.8842 22.7602C66.8842 22.7605 66.8842 22.7608 66.8841 22.7611C66.8841 22.7613 66.8841 22.7616 66.8841 22.7619C66.884 22.7622 66.884 22.7625 66.884 22.7627C66.884 22.763 66.8839 22.7633 66.8839 22.7635C66.8839 22.7638 66.8839 22.7641 66.8838 22.7644C66.8838 22.7646 66.8838 22.7649 66.8838 22.7651C66.8837 22.7654 66.8837 22.7657 66.8837 22.7659C66.8837 22.7662 66.8837 22.7664 66.8836 22.7667C66.8836 22.7669 66.8836 22.7672 66.8836 22.7675C66.8835 22.7677 66.8835 22.7679 66.8835 22.7682C66.8835 22.7684 66.8835 22.7687 66.8834 22.7689C66.8834 22.7692 66.8834 22.7694 66.8834 22.7696C66.8833 22.7699 66.8833 22.7701 66.8833 22.7704C66.8833 22.7706 66.8833 22.7708 66.8832 22.771C66.8832 22.7713 66.8832 22.7715 66.8832 22.7717C66.8832 22.772 66.8831 22.7722 66.8831 22.7724C66.8831 22.7726 66.8831 22.7728 66.8831 22.7731C66.883 22.7733 66.883 22.7735 66.883 22.7737C66.883 22.7739 66.883 22.7741 66.8829 22.7743C66.8829 22.7745 66.8829 22.7748 66.8829 22.775C66.8829 22.7752 66.8828 22.7754 66.8828 22.7756C66.8828 22.7758 66.8828 22.776 66.8828 22.7762C66.8828 22.7764 66.8827 22.7766 66.8827 22.7767C66.8827 22.7769 66.8827 22.7771 66.8827 22.7773C66.8826 22.7775 66.8826 22.7777 66.8826 22.7779C66.8826 22.7781 66.8826 22.7782 66.8826 22.7784C66.8825 22.7786 66.8825 22.7788 66.8825 22.779C66.8825 22.7791 66.8825 22.7793 66.8825 22.7795C66.8825 22.7797 66.8824 22.7798 66.8824 22.78C66.8824 22.7802 66.8824 22.7803 66.8824 22.7805C66.8824 22.7807 66.8823 22.7808 66.8823 22.781C66.8823 22.7811 66.8823 22.7813 66.8823 22.7814C66.8823 22.7816 66.8823 22.7818 66.8822 22.7819C66.8822 22.7821 66.8822 22.7822 66.8822 22.7824C66.8822 22.7825 66.8822 22.7827 66.8822 22.7828C66.8822 22.7829 66.8821 22.7831 66.8821 22.7832C66.8821 22.7834 66.8821 22.7835 66.8821 22.7836C66.8821 22.7838 66.8821 22.7839 66.8821 22.784C66.882 22.7842 66.882 22.7843 66.882 22.7844C66.882 22.7845 66.882 22.7847 66.882 22.7848C66.882 22.7849 66.882 22.785 66.882 22.7852C66.8819 22.7853 66.8819 22.7854 66.8819 22.7855C66.8819 22.7856 66.8819 22.7857 66.8819 22.7858C66.8819 22.786 66.8819 22.7861 66.8819 22.7862C66.8819 22.7863 66.8818 22.7864 66.8818 22.7865C66.8818 22.7866 66.8818 22.7867 66.8818 22.7868C66.8818 22.7869 66.8818 22.787 66.8818 22.7871C66.8818 22.7872 66.8818 22.7873 66.8818 22.7873C66.8817 22.7874 66.8817 22.7875 66.8817 22.7876C66.8817 22.7877 66.8817 22.7878 66.8817 22.7879C66.8817 22.7879 66.8817 22.788 66.8817 22.7881C66.8817 22.7882 66.8817 22.7883 66.8817 22.7883C66.8817 22.7884 66.8817 22.7885 66.8816 22.7885C66.8816 22.7886 66.8816 22.7887 66.8816 22.7888C66.8816 22.7888 66.8816 22.7889 66.8816 22.7889C66.8816 22.789 66.8816 22.7891 66.8816 22.7891C66.8816 22.7892 66.8816 22.7892 66.8816 22.7893C66.8816 22.7893 66.8816 22.7894 66.8816 22.7894C66.8816 22.7895 66.8816 22.7895 66.8816 22.7896C66.8815 22.7896 66.8815 22.7897 66.8815 22.7897C66.8815 22.7897 66.8815 22.7898 66.8815 22.7898C66.8815 22.7899 66.8815 22.7899 66.8815 22.7899C66.8815 22.79 66.8815 22.79 66.8815 22.79C66.8815 22.7901 66.8815 22.7901 66.8815 22.7901C66.8815 22.7901 66.8815 22.7901 66.8815 22.7902C66.8815 22.7902 66.8815 22.7902 66.8815 22.7902C66.8815 22.7902 66.8815 22.7903 66.8815 22.7903C66.8815 22.7903 66.8815 22.7903 66.8815 22.7903C66.8815 22.7903 66.8815 22.7903 66.8815 22.7903C66.8815 22.7903 66.8815 22.7903 67.8774 22.8809C68.8733 22.9714 68.8733 22.9714 68.8733 22.9714C68.8733 22.9714 68.8733 22.9714 68.8733 22.9714C68.8733 22.9714 68.8733 22.9714 68.8733 22.9713C68.8733 22.9713 68.8733 22.9713 68.8733 22.9713C68.8733 22.9713 68.8733 22.9713 68.8733 22.9712C68.8733 22.9712 68.8733 22.9712 68.8733 22.9712C68.8733 22.9711 68.8733 22.9711 68.8733 22.9711C68.8733 22.9711 68.8733 22.971 68.8733 22.971C68.8733 22.971 68.8733 22.9709 68.8733 22.9709C68.8733 22.9709 68.8733 22.9708 68.8733 22.9708C68.8733 22.9707 68.8733 22.9707 68.8733 22.9707C68.8733 22.9706 68.8733 22.9706 68.8734 22.9705C68.8734 22.9705 68.8734 22.9704 68.8734 22.9704C68.8734 22.9703 68.8734 22.9702 68.8734 22.9702C68.8734 22.9701 68.8734 22.9701 68.8734 22.97C68.8734 22.97 68.8734 22.9699 68.8734 22.9698C68.8734 22.9698 68.8734 22.9697 68.8734 22.9696C68.8734 22.9695 68.8734 22.9695 68.8735 22.9694C68.8735 22.9693 68.8735 22.9693 68.8735 22.9692C68.8735 22.9691 68.8735 22.969 68.8735 22.9689C68.8735 22.9689 68.8735 22.9688 68.8735 22.9687C68.8735 22.9686 68.8735 22.9685 68.8735 22.9684C68.8735 22.9683 68.8736 22.9682 68.8736 22.9681C68.8736 22.968 68.8736 22.968 68.8736 22.9679C68.8736 22.9678 68.8736 22.9677 68.8736 22.9676C68.8736 22.9675 68.8736 22.9673 68.8736 22.9672C68.8737 22.9671 68.8737 22.967 68.8737 22.9669C68.8737 22.9668 68.8737 22.9667 68.8737 22.9666C68.8737 22.9665 68.8737 22.9663 68.8737 22.9662C68.8738 22.9661 68.8738 22.966 68.8738 22.9659C68.8738 22.9657 68.8738 22.9656 68.8738 22.9655C68.8738 22.9654 68.8738 22.9652 68.8738 22.9651C68.8739 22.965 68.8739 22.9648 68.8739 22.9647C68.8739 22.9646 68.8739 22.9644 68.8739 22.9643C68.8739 22.9642 68.8739 22.964 68.874 22.9639C68.874 22.9637 68.874 22.9636 68.874 22.9634C68.874 22.9633 68.874 22.9631 68.874 22.963C68.874 22.9628 68.8741 22.9627 68.8741 22.9625C68.8741 22.9624 68.8741 22.9622 68.8741 22.962C68.8741 22.9619 68.8741 22.9617 68.8742 22.9616C68.8742 22.9614 68.8742 22.9612 68.8742 22.9611C68.8742 22.9609 68.8742 22.9607 68.8743 22.9606C68.8743 22.9604 68.8743 22.9602 68.8743 22.96C68.8743 22.9599 68.8743 22.9597 68.8744 22.9595C68.8744 22.9593 68.8744 22.9591 68.8744 22.9589C68.8744 22.9588 68.8744 22.9586 68.8745 22.9584C68.8745 22.9582 68.8745 22.958 68.8745 22.9578C68.8745 22.9576 68.8745 22.9574 68.8746 22.9572C68.8746 22.957 68.8746 22.9568 68.8746 22.9566C68.8746 22.9564 68.8746 22.9562 68.8747 22.956C68.8747 22.9558 68.8747 22.9556 68.8747 22.9554C68.8747 22.9552 68.8748 22.955 68.8748 22.9548C68.8748 22.9546 68.8748 22.9543 68.8748 22.9541C68.8749 22.9539 68.8749 22.9537 68.8749 22.9535C68.8749 22.9532 68.8749 22.953 68.875 22.9528C68.875 22.9526 68.875 22.9523 68.875 22.9521C68.875 22.9519 68.8751 22.9517 68.8751 22.9514C68.8751 22.9512 68.8751 22.951 68.8752 22.9507C68.8752 22.9505 68.8752 22.9502 68.8752 22.95C68.8752 22.9498 68.8753 22.9495 68.8753 22.9493C68.8753 22.949 68.8753 22.9488 68.8753 22.9485C68.8754 22.9483 68.8754 22.948 68.8754 22.9478C68.8754 22.9475 68.8755 22.9473 68.8755 22.947C68.8755 22.9467 68.8755 22.9465 68.8756 22.9462C68.8756 22.946 68.8756 22.9457 68.8756 22.9454C68.8757 22.9452 68.8757 22.9449 68.8757 22.9446C68.8757 22.9443 68.8758 22.9441 68.8758 22.9438C68.8758 22.9435 68.8758 22.9433 68.8759 22.943C68.8759 22.9427 68.8759 22.9424 68.8759 22.9421C68.876 22.9418 68.876 22.9416 68.876 22.9413C68.876 22.941 68.8761 22.9407 68.8761 22.9404C68.8761 22.9401 68.8761 22.9398 68.8762 22.9395C68.8762 22.9392 68.8762 22.9389 68.8762 22.9386C68.8763 22.9383 68.8763 22.938 68.8763 22.9377C68.8764 22.9374 68.8764 22.9371 68.8764 22.9368C68.8764 22.9365 68.8765 22.9362 68.8765 22.9359C68.8765 22.9356 68.8766 22.9353 68.8766 22.935C68.8766 22.9346 68.8766 22.9343 68.8767 22.934C68.8767 22.9337 68.8767 22.9334 68.8768 22.933C68.8768 22.9327 68.8768 22.9324 68.8768 22.9321C68.8769 22.9317 68.8769 22.9314 68.8769 22.9311C68.877 22.9307 68.877 22.9304 68.877 22.9301C68.8771 22.9297 68.8771 22.9294 68.8771 22.9291C68.8772 22.9287 68.8772 22.9284 68.8772 22.928C68.8772 22.9277 68.8773 22.9273 68.8773 22.927C68.8773 22.9266 68.8774 22.9263 68.8774 22.9259C68.8774 22.9256 68.8775 22.9252 68.8775 22.9249C68.8775 22.9245 68.8776 22.9242 68.8776 22.9238C68.8776 22.9234 68.8777 22.9231 68.8777 22.9227C68.8777 22.9223 68.8778 22.922 68.8778 22.9216C68.8778 22.9212 68.8779 22.9209 68.8779 22.9205C68.8779 22.9201 68.878 22.9197 68.878 22.9194C68.878 22.919 68.8781 22.9186 68.8781 22.9182C68.8781 22.9179 68.8782 22.9175 68.8782 22.9171C68.8782 22.9167 68.8783 22.9163 68.8783 22.9159C68.8783 22.9155 68.8784 22.9151 68.8784 22.9147C68.8785 22.9144 68.8785 22.914 68.8785 22.9136C68.8786 22.9132 68.8786 22.9128 68.8786 22.9124C68.8787 22.912 68.8787 22.9116 68.8787 22.9112C68.8788 22.9107 68.8788 22.9103 68.8789 22.9099C68.8789 22.9095 68.8789 22.9091 68.879 22.9087C68.879 22.9083 68.879 22.9079 68.8791 22.9074C68.8791 22.907 68.8792 22.9066 68.8792 22.9062C68.8792 22.9058 68.8793 22.9053 68.8793 22.9049C68.8794 22.9045 68.8794 22.9041 68.8794 22.9036C68.8795 22.9032 68.8795 22.9028 68.8795 22.9023C68.8796 22.9019 68.8796 22.9015 68.8797 22.901C68.8797 22.9006 68.8797 22.9001 68.8798 22.8997C68.8798 22.8993 68.8799 22.8988 68.8799 22.8984C68.88 22.8979 68.88 22.8975 68.88 22.897C68.8801 22.8966 68.8801 22.8961 68.8802 22.8957C68.8802 22.8952 68.8802 22.8947 68.8803 22.8943C68.8803 22.8938 68.8804 22.8934 68.8804 22.8929C68.8804 22.8924 68.8805 22.892 68.8805 22.8915C68.8806 22.891 68.8806 22.8906 68.8807 22.8901C68.8807 22.8896 68.8807 22.8892 68.8808 22.8887C68.8808 22.8882 68.8809 22.8877 68.8809 22.8873C68.881 22.8868 68.881 22.8863 68.8811 22.8858C68.8811 22.8853 68.8811 22.8848 68.8812 22.8844C68.8812 22.8839 68.8813 22.8834 68.8813 22.8829C68.8814 22.8824 68.8814 22.8819 68.8815 22.8814C68.8815 22.8809 68.8815 22.8804 68.8816 22.8799C68.8816 22.8794 68.8817 22.8789 68.8817 22.8784C68.8818 22.8779 68.8818 22.8774 68.8819 22.8769C68.8819 22.8764 68.882 22.8759 68.882 22.8754C68.882 22.8748 68.8821 22.8743 68.8821 22.8738C68.8822 22.8733 68.8822 22.8728 68.8823 22.8723C68.8823 22.8717 68.8824 22.8712 68.8824 22.8707C68.8825 22.8702 68.8825 22.8696 68.8826 22.8691C68.8826 22.8686 68.8827 22.868 68.8827 22.8675C68.8828 22.867 68.8828 22.8664 68.8829 22.8659C68.8829 22.8654 68.883 22.8648 68.883 22.8643C68.8831 22.8638 68.8831 22.8632 68.8832 22.8627C68.8832 22.8621 68.8833 22.8616 68.8833 22.861C68.8834 22.8605 68.8834 22.8599 68.8835 22.8594C68.8835 22.8588 68.8836 22.8583 68.8836 22.8577C68.8837 22.8571 68.8837 22.8566 68.8838 22.856C68.8838 22.8555 68.8839 22.8549 68.8839 22.8543C68.884 22.8538 68.884 22.8532 68.8841 22.8526C68.8841 22.8521 68.8842 22.8515 68.8842 22.8509C68.8843 22.8503 68.8843 22.8498 68.8844 22.8492C68.8844 22.8486 68.8845 22.848 68.8845 22.8475C68.8846 22.8469 68.8846 22.8463 68.8847 22.8457C68.8848 22.8451 68.8848 22.8445 68.8849 22.8439C68.8849 22.8433 68.885 22.8428 68.885 22.8422C68.8851 22.8416 68.8851 22.841 68.8852 22.8404C68.8852 22.8398 68.8853 22.8392 68.8853 22.8386C68.8854 22.838 68.8855 22.8374 68.8855 22.8368C68.8856 22.8362 68.8856 22.8355 68.8857 22.8349C68.8857 22.8343 68.8858 22.8337 68.8858 22.8331C68.8859 22.8325 68.886 22.8319 68.886 22.8312C68.8861 22.8306 68.8861 22.83 68.8862 22.8294C68.8862 22.8288 68.8863 22.8281 68.8864 22.8275C68.8864 22.8269 68.8865 22.8263 68.8865 22.8256C68.8866 22.825 68.8866 22.8244 68.8867 22.8237C68.8868 22.8231 68.8868 22.8224 68.8869 22.8218C68.8869 22.8212 68.887 22.8205 68.887 22.8199C68.8871 22.8192 68.8872 22.8186 68.8872 22.8179C68.8873 22.8173 68.8873 22.8167 68.8874 22.816C68.8875 22.8153 68.8875 22.8147 68.8876 22.814C68.8876 22.8134 68.8877 22.8127 68.8878 22.8121C68.8878 22.8114 68.8879 22.8107 68.8879 22.8101C68.888 22.8094 68.8881 22.8088 68.8881 22.8081C68.8882 22.8074 68.8882 22.8067 68.8883 22.8061C68.8884 22.8054 68.8884 22.8047 68.8885 22.8041C68.8885 22.8034 68.8886 22.8027 68.8887 22.802C68.8887 22.8013 68.8888 22.8007 68.8889 22.8C68.8889 22.7993 68.889 22.7986 68.889 22.7979C68.8891 22.7972 68.8892 22.7965 68.8892 22.7958C68.8893 22.7951 68.8894 22.7945 68.8894 22.7938C68.8895 22.7931 68.8895 22.7924 68.8896 22.7917C68.8897 22.791 68.8897 22.7903 68.8898 22.7896C68.8899 22.7888 68.8899 22.7881 68.89 22.7874C68.8901 22.7867 68.8901 22.786 68.8902 22.7853C68.8903 22.7846 68.8903 22.7839 68.8904 22.7832C68.8904 22.7824 68.8905 22.7817 68.8906 22.781C68.8906 22.7803 68.8907 22.7795 68.8908 22.7788C68.8908 22.7781 68.8909 22.7774 68.891 22.7766C68.891 22.7759 68.8911 22.7752 68.8912 22.7744C68.8912 22.7737 68.8913 22.773 68.8914 22.7722C68.8914 22.7715 68.8915 22.7708 68.8916 22.77C68.8916 22.7693 68.8917 22.7685 68.8918 22.7678C68.8918 22.767 68.8919 22.7663 68.892 22.7655C68.8921 22.7648 68.8921 22.764 68.8922 22.7633C68.8923 22.7625 68.8923 22.7618 68.8924 22.761C68.8925 22.7603 68.8925 22.7595 68.8926 22.7587C68.8927 22.758 68.8927 22.7572 68.8928 22.7565C68.8929 22.7557 68.893 22.7549 68.893 22.7541C68.8931 22.7534 68.8932 22.7526 68.8932 22.7518C68.8933 22.7511 68.8934 22.7503 68.8934 22.7495C68.8935 22.7487 68.8936 22.7479 68.8937 22.7472C68.8937 22.7464 68.8938 22.7456 68.8939 22.7448C68.8939 22.744 68.894 22.7432 68.8941 22.7424C68.8942 22.7416 68.8942 22.7409 68.8943 22.7401C68.8944 22.7393 68.8944 22.7385 68.8945 22.7377C68.8946 22.7369 68.8947 22.7361 68.8947 22.7353C68.8948 22.7345 68.8949 22.7337 68.895 22.7328C68.895 22.732 68.8951 22.7312 68.8952 22.7304C68.8953 22.7296 68.8953 22.7288 68.8954 22.728C68.8955 22.7272 68.8955 22.7263 68.8956 22.7255C68.8957 22.7247 68.8958 22.7239 68.8958 22.7231C68.8959 22.7222 68.896 22.7214 68.8961 22.7206C68.8961 22.7198 68.8962 22.7189 68.8963 22.7181C68.8964 22.7173 68.8964 22.7164 68.8965 22.7156C68.8966 22.7148 68.8967 22.7139 68.8968 22.7131C68.8968 22.7122 68.8969 22.7114 68.897 22.7106C68.8971 22.7097 68.8971 22.7089 68.8972 22.708C68.8973 22.7072 68.8974 22.7063 68.8974 22.7055C68.8975 22.7046 68.8976 22.7038 68.8977 22.7029C68.8978 22.702 68.8978 22.7012 68.8979 22.7003C68.898 22.6995 68.8981 22.6986 68.8981 22.6977C68.8982 22.6969 68.8983 22.696 68.8984 22.6951C68.8985 22.6943 68.8985 22.6934 68.8986 22.6925C68.8987 22.6917 68.8988 22.6908 68.8989 22.6899C68.8989 22.689 68.899 22.6881 68.8991 22.6873C68.8992 22.6864 68.8993 22.6855 68.8993 22.6846C68.8994 22.6837 68.8995 22.6828 68.8996 22.682C68.8997 22.6811 68.8997 22.6802 68.8998 22.6793C68.8999 22.6784 68.9 22.6775 68.9001 22.6766C68.9002 22.6757 68.9002 22.6748 68.9003 22.6739C68.9004 22.673 68.9005 22.6721 68.9006 22.6712C68.9006 22.6703 68.9007 22.6694 68.9008 22.6685C68.9009 22.6676 68.901 22.6666 68.9011 22.6657C68.9011 22.6648 68.9012 22.6639 68.9013 22.663C68.9014 22.6621 68.9015 22.6611 68.9016 22.6602C68.9016 22.6593 68.9017 22.6584 68.9018 22.6574C68.9019 22.6565 68.902 22.6556 68.9021 22.6547C68.9021 22.6537 68.9022 22.6528 68.9023 22.6519C68.9024 22.6509 68.9025 22.65 68.9026 22.6491C68.9027 22.6481 68.9027 22.6472 68.9028 22.6462C68.9029 22.6453 68.903 22.6443 68.9031 22.6434C68.9032 22.6425 68.9033 22.6415 68.9033 22.6406C68.9034 22.6396 68.9035 22.6387 68.9036 22.6377C68.9037 22.6367 68.9038 22.6358 68.9039 22.6348C68.904 22.6339 68.904 22.6329 68.9041 22.6319C68.9042 22.631 68.9043 22.63 68.9044 22.629C68.9045 22.6281 68.9046 22.6271 68.9047 22.6261C68.9047 22.6252 68.9048 22.6242 68.9049 22.6232C68.905 22.6222 68.9051 22.6213 68.9052 22.6203C68.9053 22.6193 68.9054 22.6183 68.9055 22.6173C68.9055 22.6164 68.9056 22.6154 68.9057 22.6144C68.9058 22.6134 68.9059 22.6124 68.906 22.6114C68.9061 22.6104 68.9062 22.6094 68.9063 22.6084C68.9064 22.6074 68.9064 22.6064 68.9065 22.6054C68.9066 22.6044 68.9067 22.6034 68.9068 22.6024C68.9069 22.6014 68.907 22.6004 68.9071 22.5994C68.9072 22.5984 68.9073 22.5974 68.9074 22.5964C68.9075 22.5954 68.9075 22.5944 68.9076 22.5933C68.9077 22.5923 68.9078 22.5913 68.9079 22.5903C68.908 22.5893 68.9081 22.5882 68.9082 22.5872C68.9083 22.5862 68.9084 22.5852 68.9085 22.5841C68.9086 22.5831 68.9087 22.5821 68.9088 22.5811C68.9089 22.58 68.9089 22.579 68.909 22.5779C68.9091 22.5769 68.9092 22.5759 68.9093 22.5748C68.9094 22.5738 68.9095 22.5727 68.9096 22.5717C68.9097 22.5707 68.9098 22.5696 68.9099 22.5686C68.91 22.5675 68.9101 22.5665 68.9102 22.5654C68.9103 22.5644 68.9104 22.5633 68.9105 22.5622C68.9106 22.5612 68.9107 22.5601 68.9108 22.5591C68.9109 22.558 68.9109 22.5569 68.911 22.5559C68.9111 22.5548 68.9112 22.5537 68.9113 22.5527C68.9114 22.5516 68.9115 22.5505 68.9116 22.5495C68.9117 22.5484 68.9118 22.5473 68.9119 22.5462C68.912 22.5452 68.9121 22.5441 68.9122 22.543C68.9123 22.5419 68.9124 22.5408 68.9125 22.5397C68.9126 22.5387 68.9127 22.5376 68.9128 22.5365C68.9129 22.5354 68.913 22.5343 68.9131 22.5332C68.9132 22.5321 68.9133 22.531 68.9134 22.5299C68.9135 22.5288 68.9136 22.5277 68.9137 22.5266C68.9138 22.5255 68.9139 22.5244 68.914 22.5233C68.9141 22.5222 68.9142 22.5211 68.9143 22.52C68.9144 22.5189 68.9145 22.5178 68.9146 22.5166C68.9147 22.5155 68.9148 22.5144 68.9149 22.5133C68.915 22.5122 68.9151 22.511 68.9152 22.5099C68.9153 22.5088 68.9154 22.5077 68.9155 22.5065C68.9156 22.5054 68.9157 22.5043 68.9158 22.5032C68.9159 22.502 68.916 22.5009 68.9161 22.4998C68.9162 22.4986 68.9164 22.4975 68.9165 22.4964C68.9166 22.4952 68.9167 22.4941 68.9168 22.4929C68.9169 22.4918 68.917 22.4906 68.9171 22.4895C68.9172 22.4883 68.9173 22.4872 68.9174 22.486C68.9175 22.4849 68.9176 22.4837 68.9177 22.4826C68.9178 22.4814 68.9179 22.4803 68.918 22.4791C68.9181 22.478 68.9182 22.4768 68.9183 22.4756C68.9184 22.4745 68.9186 22.4733 68.9187 22.4721C68.9188 22.471 68.9189 22.4698 68.919 22.4686C68.9191 22.4674 68.9192 22.4663 68.9193 22.4651C68.9194 22.4639 68.9195 22.4627 68.9196 22.4616C68.9197 22.4604 68.9198 22.4592 68.9199 22.458C68.92 22.4568 68.9202 22.4556 68.9203 22.4545C68.9204 22.4533 68.9205 22.4521 68.9206 22.4509C68.9207 22.4497 68.9208 22.4485 68.9209 22.4473C68.921 22.4461 68.9211 22.4449 68.9212 22.4437C68.9214 22.4425 68.9215 22.4413 68.9216 22.4401C68.9217 22.4389 68.9218 22.4377 68.9219 22.4365C68.922 22.4353 68.9221 22.4341 68.9222 22.4328C68.9223 22.4316 68.9225 22.4304 68.9226 22.4292C68.9227 22.428 68.9228 22.4268 68.9229 22.4255C68.923 22.4243 68.9231 22.4231 68.9232 22.4219C68.9233 22.4206 68.9235 22.4194 68.9236 22.4182C68.9237 22.417 68.9238 22.4157 68.9239 22.4145C68.924 22.4133 68.9241 22.412 68.9242 22.4108C68.9243 22.4096 68.9245 22.4083 68.9246 22.4071C68.9247 22.4058 68.9248 22.4046 68.9249 22.4033C68.925 22.4021 68.9251 22.4008 68.9253 22.3996C68.9254 22.3983 68.9255 22.3971 68.9256 22.3958C68.9257 22.3946 68.9258 22.3933 68.9259 22.3921C68.9261 22.3908 68.9262 22.3896 68.9263 22.3883C68.9264 22.387 68.9265 22.3858 68.9266 22.3845C68.9267 22.3832 68.9269 22.382 68.927 22.3807C68.9271 22.3794 68.9272 22.3782 68.9273 22.3769C68.9274 22.3756 68.9275 22.3743 68.9277 22.373C68.9278 22.3718 68.9279 22.3705 68.928 22.3692C68.9281 22.3679 68.9282 22.3666 68.9284 22.3654C68.9285 22.3641 68.9286 22.3628 68.9287 22.3615C68.9288 22.3602 68.929 22.3589 68.9291 22.3576C68.9292 22.3563 68.9293 22.355 68.9294 22.3537C68.9295 22.3524 68.9297 22.3511 68.9298 22.3498C68.9299 22.3485 68.93 22.3472 68.9301 22.3459C68.9303 22.3446 68.9304 22.3433 68.9305 22.342C68.9306 22.3407 68.9307 22.3393 68.9308 22.338C68.931 22.3367 68.9311 22.3354 68.9312 22.3341C68.9313 22.3328 68.9314 22.3314 68.9316 22.3301C68.9317 22.3288 68.9318 22.3275 68.9319 22.3261C68.9321 22.3248 68.9322 22.3235 68.9323 22.3221C68.9324 22.3208 68.9325 22.3195 68.9327 22.3181C68.9328 22.3168 68.9329 22.3155 68.933 22.3141C68.9331 22.3128 68.9333 22.3114 68.9334 22.3101C68.9335 22.3088 68.9336 22.3074 68.9338 22.3061C68.9339 22.3047 68.934 22.3034 68.9341 22.302C68.9342 22.3007 68.9344 22.2993 68.9345 22.298C68.9346 22.2966 68.9347 22.2952 68.9349 22.2939C68.935 22.2925 68.9351 22.2912 68.9352 22.2898C68.9354 22.2884 68.9355 22.2871 68.9356 22.2857C68.9357 22.2843 68.9359 22.283 68.936 22.2816C68.9361 22.2802 68.9362 22.2788 68.9364 22.2775C68.9365 22.2761 68.9366 22.2747 68.9367 22.2733C68.9369 22.2719 68.937 22.2706 68.9371 22.2692C68.9372 22.2678 68.9374 22.2664 68.9375 22.265C68.9376 22.2636 68.9377 22.2622 68.9379 22.2608C68.938 22.2594 68.9381 22.258 68.9382 22.2566C68.9384 22.2552 68.9385 22.2539 68.9386 22.2524C68.9388 22.251 68.9389 22.2496 68.939 22.2482C68.9391 22.2468 68.9393 22.2454 68.9394 22.244C68.9395 22.2426 68.9397 22.2412 68.9398 22.2398C68.9399 22.2384 68.94 22.237 68.9402 22.2355C68.9403 22.2341 68.9404 22.2327 68.9406 22.2313C68.9407 22.2299 68.9408 22.2284 68.9409 22.227C68.9411 22.2256 68.9412 22.2241 68.9413 22.2227C68.9415 22.2213 68.9416 22.2199 68.9417 22.2184C68.9419 22.217 68.942 22.2156 68.9421 22.2141C68.9422 22.2127 68.9424 22.2112 68.9425 22.2098C68.9426 22.2083 68.9428 22.2069 68.9429 22.2055C68.943 22.204 68.9432 22.2026 68.9433 22.2011C68.9434 22.1997 68.9436 22.1982 68.9437 22.1968C68.9438 22.1953 68.944 22.1938 68.9441 22.1924C68.9442 22.1909 68.9444 22.1895 68.9445 22.188C68.9446 22.1865 68.9448 22.1851 68.9449 22.1836C68.945 22.1821 68.9452 22.1807 68.9453 22.1792C68.9454 22.1777 68.9456 22.1763 68.9457 22.1748C68.9458 22.1733 68.946 22.1718 68.9461 22.1703C68.9462 22.1689 68.9464 22.1674 68.9465 22.1659C68.9466 22.1644 68.9468 22.1629 68.9469 22.1614C68.947 22.16 68.9472 22.1585 68.9473 22.157C68.9474 22.1555 68.9476 22.154 68.9477 22.1525C68.9479 22.151 68.948 22.1495 68.9481 22.148C68.9483 22.1465 68.9484 22.145 68.9485 22.1435C68.9487 22.142 68.9488 22.1405 68.9489 22.139C68.9491 22.1375 68.9492 22.136 68.9494 22.1345C68.9495 22.1329 68.9496 22.1314 68.9498 22.1299C68.9499 22.1284 68.95 22.1269 68.9502 22.1254C68.9503 22.1238 68.9505 22.1223 68.9506 22.1208C68.9507 22.1193 68.9509 22.1177 68.951 22.1162C68.9512 22.1147 68.9513 22.1131 68.9514 22.1116C68.9516 22.1101 68.9517 22.1085 68.9519 22.107C68.952 22.1055 68.9521 22.1039 68.9523 22.1024C68.9524 22.1009 68.9526 22.0993 68.9527 22.0978C68.9528 22.0962 68.953 22.0947 68.9531 22.0931C68.9533 22.0916 68.9534 22.09 68.9535 22.0885C68.9537 22.0869 68.9538 22.0854 68.954 22.0838C68.9541 22.0823 68.9542 22.0807 68.9544 22.0791C68.9545 22.0776 68.9547 22.076 68.9548 22.0744C68.955 22.0729 68.9551 22.0713 68.9552 22.0697C68.9554 22.0682 68.9555 22.0666 68.9557 22.065C68.9558 22.0634 68.956 22.0619 68.9561 22.0603C68.9562 22.0587 68.9564 22.0571 68.9565 22.0556C68.9567 22.054 68.9568 22.0524 68.957 22.0508C68.9571 22.0492 68.9572 22.0476 68.9574 22.046C68.9575 22.0445 68.9577 22.0429 68.9578 22.0413C68.958 22.0397 68.9581 22.0381 68.9583 22.0365C68.9584 22.0349 68.9586 22.0333 68.9587 22.0317C68.9588 22.0301 68.959 22.0285 68.9591 22.0269C68.9593 22.0253 68.9594 22.0236 68.9596 22.022C68.9597 22.0204 68.9599 22.0188 68.96 22.0172C68.9602 22.0156 68.9603 22.014 68.9605 22.0124C68.9606 22.0107 68.9608 22.0091 68.9609 22.0075C68.961 22.0059 68.9612 22.0042 68.9613 22.0026C68.9615 22.001 68.9616 21.9994 68.9618 21.9977C68.9619 21.9961 68.9621 21.9945 68.9622 21.9928C68.9624 21.9912 68.9625 21.9896 68.9627 21.9879C68.9628 21.9863 68.963 21.9846 68.9631 21.983C68.9633 21.9814 68.9634 21.9797 68.9636 21.9781C68.9637 21.9764 68.9639 21.9748 68.964 21.9731C68.9642 21.9715 68.9643 21.9698 68.9645 21.9682C68.9646 21.9665 68.9648 21.9648 68.9649 21.9632C68.9651 21.9615 68.9652 21.9599 68.9654 21.9582C68.9655 21.9565 68.9657 21.9549 68.9658 21.9532C68.966 21.9515 68.9661 21.9499 68.9663 21.9482C68.9664 21.9465 68.9666 21.9448 68.9667 21.9432C68.9669 21.9415 68.9671 21.9398 68.9672 21.9381C68.9674 21.9364 68.9675 21.9348 68.9677 21.9331C68.9678 21.9314 68.968 21.9297 68.9681 21.928C68.9683 21.9263 68.9684 21.9246 68.9686 21.923C68.9687 21.9213 68.9689 21.9196 68.969 21.9179C68.9692 21.9162 68.9694 21.9145 68.9695 21.9128C68.9697 21.9111 68.9698 21.9094 68.97 21.9077C68.9701 21.906 68.9703 21.9043 68.9704 21.9025C68.9706 21.9008 68.9707 21.8991 68.9709 21.8974C68.9711 21.8957 68.9712 21.894 68.9714 21.8923C68.9715 21.8906 68.9717 21.8888 68.9718 21.8871C68.972 21.8854 68.9722 21.8837 68.9723 21.8819C68.9725 21.8802 68.9726 21.8785 68.9728 21.8768C68.9729 21.875 68.9731 21.8733 68.9733 21.8716C68.9734 21.8698 68.9736 21.8681 68.9737 21.8664C68.9739 21.8646 68.974 21.8629 68.9742 21.8611C68.9744 21.8594 68.9745 21.8577 68.9747 21.8559C68.9748 21.8542 68.975 21.8524 68.9752 21.8507C68.9753 21.8489 68.9755 21.8472 68.9756 21.8454C68.9758 21.8437 68.976 21.8419 68.9761 21.8401C68.9763 21.8384 68.9764 21.8366 68.9766 21.8349C68.9768 21.8331 68.9769 21.8313 68.9771 21.8296C68.9772 21.8278 68.9774 21.826 68.9776 21.8243C68.9777 21.8225 68.9779 21.8207 68.978 21.819C68.9782 21.8172 68.9784 21.8154 68.9785 21.8136C68.9787 21.8118 68.9788 21.8101 68.979 21.8083C68.9792 21.8065 68.9793 21.8047 68.9795 21.8029C68.9797 21.8011 68.9798 21.7994 68.98 21.7976C68.9801 21.7958 68.9803 21.794 68.9805 21.7922C68.9806 21.7904 68.9808 21.7886 68.981 21.7868C68.9811 21.785 68.9813 21.7832 68.9815 21.7814C68.9816 21.7796 68.9818 21.7778 68.9819 21.776C68.9821 21.7742 68.9823 21.7724 68.9824 21.7705C68.9826 21.7687 68.9828 21.7669 68.9829 21.7651C68.9831 21.7633 68.9833 21.7615 68.9834 21.7597C68.9836 21.7578 68.9838 21.756 68.9839 21.7542C68.9841 21.7524 68.9843 21.7505 68.9844 21.7487C68.9846 21.7469 68.9848 21.7451 68.9849 21.7432C68.9851 21.7414 68.9853 21.7396 68.9854 21.7377C68.9856 21.7359 68.9858 21.734 68.9859 21.7322C68.9861 21.7304 68.9863 21.7285 68.9864 21.7267C68.9866 21.7248 68.9868 21.723 68.9869 21.7211C68.9871 21.7193 68.9873 21.7174 68.9874 21.7156C68.9876 21.7137 68.9878 21.7119 68.9879 21.71C68.9881 21.7082 68.9883 21.7063 68.9884 21.7045C68.9886 21.7026 68.9888 21.7007 68.989 21.6989C68.9891 21.697 68.9893 21.6951 68.9895 21.6933C68.9896 21.6914 68.9898 21.6895 68.99 21.6877C68.9901 21.6858 68.9903 21.6839 68.9905 21.682C68.9907 21.6802 68.9908 21.6783 68.991 21.6764C68.9912 21.6745 68.9913 21.6726 68.9915 21.6707C68.9917 21.6689 68.9919 21.667 68.992 21.6651C68.9922 21.6632 68.9924 21.6613 68.9925 21.6594C68.9927 21.6575 68.9929 21.6556 68.9931 21.6537C68.9932 21.6518 68.9934 21.6499 68.9936 21.648C68.9937 21.6461 68.9939 21.6442 68.9941 21.6423C68.9943 21.6404 68.9944 21.6385 68.9946 21.6366C68.9948 21.6347 68.995 21.6328 68.9951 21.6309C68.9953 21.6289 68.9955 21.627 68.9957 21.6251C68.9958 21.6232 68.996 21.6213 68.9962 21.6194C68.9964 21.6174 68.9965 21.6155 68.9967 21.6136C68.9969 21.6117 68.9971 21.6097 68.9972 21.6078C68.9974 21.6059 68.9976 21.6039 68.9978 21.602C68.9979 21.6001 68.9981 21.5981 68.9983 21.5962C68.9985 21.5943 68.9986 21.5923 68.9988 21.5904C68.999 21.5884 68.9992 21.5865 68.9993 21.5845C68.9995 21.5826 68.9997 21.5806 68.9999 21.5787C69.0001 21.5767 69.0002 21.5748 69.0004 21.5728C69.0006 21.5709 69.0008 21.5689 69.0009 21.567C69.0011 21.565 69.0013 21.563 69.0015 21.5611C69.0017 21.5591 69.0018 21.5572 69.002 21.5552C69.0022 21.5532 69.0024 21.5513 69.0026 21.5493C69.0027 21.5473 69.0029 21.5453 69.0031 21.5434C69.0033 21.5414 69.0035 21.5394 69.0036 21.5374C69.0038 21.5355 69.004 21.5335 69.0042 21.5315C69.0044 21.5295 69.0045 21.5275 69.0047 21.5255C69.0049 21.5235 69.0051 21.5216 69.0053 21.5196C69.0054 21.5176 69.0056 21.5156 69.0058 21.5136C69.006 21.5116 69.0062 21.5096 69.0063 21.5076C69.0065 21.5056 69.0067 21.5036 69.0069 21.5016C69.0071 21.4996 69.0073 21.4976 69.0074 21.4956C69.0076 21.4936 69.0078 21.4915 69.008 21.4895C69.0082 21.4875 69.0084 21.4855 69.0085 21.4835C69.0087 21.4815 69.0089 21.4795 69.0091 21.4774C69.0093 21.4754 69.0095 21.4734 69.0096 21.4714C69.0098 21.4693 69.01 21.4673 69.0102 21.4653C69.0104 21.4633 69.0106 21.4612 69.0107 21.4592C69.0109 21.4572 69.0111 21.4551 69.0113 21.4531C69.0115 21.4511 69.0117 21.449 69.0119 21.447C69.012 21.4449 69.0122 21.4429 69.0124 21.4409C69.0126 21.4388 69.0128 21.4368 69.013 21.4347C69.0132 21.4327 69.0133 21.4306 69.0135 21.4286C69.0137 21.4265 69.0139 21.4245 69.0141 21.4224C69.0143 21.4203 69.0145 21.4183 69.0147 21.4162C69.0148 21.4142 69.015 21.4121 69.0152 21.41C69.0154 21.408 69.0156 21.4059 69.0158 21.4038C69.016 21.4018 69.0162 21.3997 69.0163 21.3976C69.0165 21.3955 69.0167 21.3935 69.0169 21.3914C69.0171 21.3893 69.0173 21.3872 69.0175 21.3851C69.0177 21.3831 69.0179 21.381 69.018 21.3789C69.0182 21.3768 69.0184 21.3747 69.0186 21.3726C69.0188 21.3705 69.019 21.3684 69.0192 21.3664C69.0194 21.3643 69.0196 21.3622 69.0198 21.3601L67.028 21.179ZM66.8774 22.8809C66.8774 23.4695 66.8942 24.0735 66.9277 24.6926L68.9247 24.5847C68.8931 23.9994 68.8774 23.4315 68.8774 22.8809H66.8774ZM66.9297 24.7217C66.9806 25.3327 67.0567 25.9662 67.1576 26.6218L69.1343 26.3177C69.0399 25.7037 68.9695 25.1165 68.9228 24.5556L66.9297 24.7217ZM67.1569 26.6173C67.319 27.7034 67.4306 28.5341 67.4935 29.1163L69.4819 28.9013C69.4147 28.279 69.2984 27.4171 69.135 26.3221L67.1569 26.6173ZM67.4972 29.1464C67.5775 29.7239 67.6287 30.0838 67.6478 30.1986L69.6206 29.8698C69.6072 29.7892 69.5608 29.4655 69.4782 28.8712L67.4972 29.1464ZM67.6402 30.1431L69.2027 44.4009L71.1908 44.1831L69.6283 29.9252L67.6402 30.1431ZM65.0171 22.0973L64.895 20.486L62.9007 20.6371L63.0228 22.2484L65.0171 22.0973ZM63.9662 19.5639L51.4906 18.7094L51.354 20.7047L63.8296 21.5592L63.9662 19.5639ZM50.4228 19.7387L50.5449 23.5961L52.5439 23.5328L52.4218 19.6754L50.4228 19.7387ZM51.6552 24.5583L64.1308 23.1667L63.9091 21.179L51.4335 22.5706L51.6552 24.5583Z" fill="white" mask="url(#path-3-outside-2_14_29)"/>
</g>
<defs>
<filter id="filter0_d_14_29" x="54.5543" y="0.0406647" width="58.8103" height="59.0506" filterUnits="userSpaceOnUse" color-interpolation-filters="sRGB">
<feFlood flood-opacity="0" result="BackgroundImageFix"/>
<feColorMatrix in="SourceAlpha" type="matrix" values="0 0 0 0 0 0 0 0 0 0 0 0 0 0 0 0 0 0 127 0" result="hardAlpha"/>
<feOffset dy="4"/>
<feGaussianBlur stdDeviation="2"/>
<feComposite in2="hardAlpha" operator="out"/>
<feColorMatrix type="matrix" values="0 0 0 0 0 0 0 0 0 0 0 0 0 0 0 0 0 0 0.25 0"/>
<feBlend mode="normal" in2="BackgroundImageFix" result="effect1_dropShadow_14_29"/>
<feBlend mode="normal" in="SourceGraphic" in2="effect1_dropShadow_14_29" result="shape"/>
</filter>
<filter id="filter1_d_14_29" x="37.9847" y="1.78497" width="37.3201" height="53.638" filterUnits="userSpaceOnUse" color-interpolation-filters="sRGB">
<feFlood flood-opacity="0" result="BackgroundImageFix"/>
<feColorMatrix in="SourceAlpha" type="matrix" values="0 0 0 0 0 0 0 0 0 0 0 0 0 0 0 0 0 0 127 0" result="hardAlpha"/>
<feOffset dy="4"/>
<feGaussianBlur stdDeviation="2"/>
<feComposite in2="hardAlpha" operator="out"/>
<feColorMatrix type="matrix" values="0 0 0 0 0 0 0 0 0 0 0 0 0 0 0 0 0 0 0.25 0"/>
<feBlend mode="normal" in2="BackgroundImageFix" result="effect1_dropShadow_14_29"/>
<feBlend mode="normal" in="SourceGraphic" in2="effect1_dropShadow_14_29" result="shape"/>
</filter>
</defs>
</svg>
