<svg width="116" height="119" viewBox="0 0 116 119" fill="none" xmlns="http://www.w3.org/2000/svg">
<g filter="url(#filter0_d_22_12)">
<mask id="path-1-outside-1_22_12" maskUnits="userSpaceOnUse" x="16" y="16" width="96" height="95" fill="black">
<rect fill="white" x="16" y="16" width="96" height="95"/>
<path d="M110.484 99.6719L87.1868 102.297L89.0618 49.8906L64.5462 91L43.5931 65.6406C42.4681 70.7969 41.2493 75.4062 39.9368 79.4688C38.6243 83.5 37.2337 87 35.765 89.9688C33.8275 93.9062 31.4837 97.4375 28.7337 100.562C25.9837 103.719 22.8431 106.484 19.3118 108.859L17.4368 104.922C21.8431 101.641 25.5618 97.0312 28.5931 91.0938C31.6556 85.1562 34.0618 77.8906 35.8118 69.2969L45.9837 19.2812L70.4056 64.9375L92.2025 20.7812L102.702 21.1562L110.484 99.6719ZM65.1556 73.6562L48.2806 44.5L45.89 56.9688L62.39 78.5781L65.1556 73.6562ZM100.546 64.1406V62.3125L98.015 63.25C97.765 67.6875 97.1712 72.0312 96.2337 76.2812C95.3275 80.5 94.0931 84.6094 92.5306 88.6094L97.2181 89.3594C98.3743 84.6406 99.2181 80.1875 99.7493 76C100.281 71.7812 100.546 67.8281 100.546 64.1406Z"/>
</mask>
<path d="M110.484 99.6719L87.1868 102.297L89.0618 49.8906L64.5462 91L43.5931 65.6406C42.4681 70.7969 41.2493 75.4062 39.9368 79.4688C38.6243 83.5 37.2337 87 35.765 89.9688C33.8275 93.9062 31.4837 97.4375 28.7337 100.562C25.9837 103.719 22.8431 106.484 19.3118 108.859L17.4368 104.922C21.8431 101.641 25.5618 97.0312 28.5931 91.0938C31.6556 85.1562 34.0618 77.8906 35.8118 69.2969L45.9837 19.2812L70.4056 64.9375L92.2025 20.7812L102.702 21.1562L110.484 99.6719ZM65.1556 73.6562L48.2806 44.5L45.89 56.9688L62.39 78.5781L65.1556 73.6562ZM100.546 64.1406V62.3125L98.015 63.25C97.765 67.6875 97.1712 72.0312 96.2337 76.2812C95.3275 80.5 94.0931 84.6094 92.5306 88.6094L97.2181 89.3594C98.3743 84.6406 99.2181 80.1875 99.7493 76C100.281 71.7812 100.546 67.8281 100.546 64.1406Z" fill="white"/>
<path d="M110.484 99.6719L110.596 100.666L111.576 100.555L111.479 99.5733L110.484 99.6719ZM87.1868 102.297L86.1875 102.261L86.146 103.42L87.2988 103.291L87.1868 102.297ZM89.0618 49.8906L90.0612 49.9264L88.203 49.3784L89.0618 49.8906ZM64.5462 91L63.7753 91.637L64.6787 92.7303L65.4051 91.5122L64.5462 91ZM43.5931 65.6406L44.364 65.0037L43.0544 63.4186L42.6161 65.4275L43.5931 65.6406ZM39.9368 79.4688L40.8877 79.7783L40.8884 79.7762L39.9368 79.4688ZM35.765 89.9688L34.8686 89.5253L34.8677 89.5272L35.765 89.9688ZM28.7337 100.562L27.983 99.9019L27.9797 99.9056L28.7337 100.562ZM19.3118 108.859L18.409 109.289L18.9076 110.336L19.8699 109.689L19.3118 108.859ZM17.4368 104.922L16.8396 104.12L16.1809 104.61L16.534 105.352L17.4368 104.922ZM28.5931 91.0938L27.7043 90.6353L27.7024 90.6391L28.5931 91.0938ZM35.8118 69.2969L36.7917 69.4964L36.7918 69.4962L35.8118 69.2969ZM45.9837 19.2812L46.8655 18.8096L45.5567 16.3629L45.0038 19.082L45.9837 19.2812ZM70.4056 64.9375L69.5238 65.4092L70.4413 67.1244L71.3023 65.3801L70.4056 64.9375ZM92.2025 20.7812L92.2381 19.7819L91.592 19.7588L91.3058 20.3386L92.2025 20.7812ZM102.702 21.1562L103.698 21.0576L103.611 20.1881L102.738 20.1569L102.702 21.1562ZM65.1556 73.6562L66.0274 74.1461L66.3068 73.6489L66.0211 73.1553L65.1556 73.6562ZM48.2806 44.5L49.1461 43.9991L47.8032 41.679L47.2985 44.3117L48.2806 44.5ZM45.89 56.9688L44.9078 56.7804L44.8236 57.2199L45.0952 57.5756L45.89 56.9688ZM62.39 78.5781L61.5952 79.185L62.5174 80.3928L63.2618 79.068L62.39 78.5781ZM100.546 62.3125H101.546V60.8757L100.199 61.3748L100.546 62.3125ZM98.015 63.25L97.6676 62.3123L97.0534 62.5398L97.0165 63.1938L98.015 63.25ZM96.2337 76.2812L95.2572 76.0658L95.256 76.0712L96.2337 76.2812ZM92.5306 88.6094L91.5991 88.2455L91.1478 89.4009L92.3726 89.5968L92.5306 88.6094ZM97.2181 89.3594L97.0601 90.3468L97.97 90.4924L98.1893 89.5974L97.2181 89.3594ZM99.7493 76L100.741 76.1259L100.741 76.1249L99.7493 76ZM110.372 98.6782L87.0749 101.303L87.2988 103.291L110.596 100.666L110.372 98.6782ZM88.1862 102.333L90.0612 49.9264L88.0625 49.8549L86.1875 102.261L88.1862 102.333ZM88.203 49.3784L63.6873 90.4878L65.4051 91.5122L89.9207 50.4028L88.203 49.3784ZM65.3171 90.363L44.364 65.0037L42.8222 66.2776L63.7753 91.637L65.3171 90.363ZM42.6161 65.4275C41.4965 70.559 40.2857 75.136 38.9853 79.1613L40.8884 79.7762C42.2129 75.6765 43.4397 71.0348 44.5701 65.8538L42.6161 65.4275ZM38.986 79.1592C37.6845 83.1565 36.3111 86.6098 34.8686 89.5253L36.6613 90.4122C38.1564 87.3902 39.5642 83.8435 40.8877 79.7783L38.986 79.1592ZM34.8677 89.5272C32.967 93.3898 30.6716 96.8466 27.983 99.9019L29.4844 101.223C32.2958 98.0284 34.6879 94.4227 36.6622 90.4103L34.8677 89.5272ZM27.9797 99.9056C25.2881 102.995 22.2136 105.703 18.7537 108.03L19.8699 109.689C23.4725 107.266 26.6793 104.443 29.4877 101.219L27.9797 99.9056ZM20.2147 108.429L18.3397 104.492L16.534 105.352L18.409 109.289L20.2147 108.429ZM18.0341 105.724C22.587 102.333 26.3973 97.5939 29.4837 91.5484L27.7024 90.6391C24.7263 96.4686 21.0991 100.948 16.8396 104.12L18.0341 105.724ZM29.4818 91.5522C32.5972 85.5121 35.0287 78.1539 36.7917 69.4964L34.8319 69.0973C33.0949 77.6274 30.7139 84.8004 27.7043 90.6353L29.4818 91.5522ZM36.7918 69.4962L46.9636 19.4805L45.0038 19.082L34.8319 69.0976L36.7918 69.4962ZM45.1019 19.7529L69.5238 65.4092L71.2874 64.4658L46.8655 18.8096L45.1019 19.7529ZM71.3023 65.3801L93.0992 21.2239L91.3058 20.3386L69.5089 64.4949L71.3023 65.3801ZM92.1668 21.7806L102.667 22.1556L102.738 20.1569L92.2381 19.7819L92.1668 21.7806ZM101.707 21.2549L109.489 99.7705L111.479 99.5733L103.698 21.0576L101.707 21.2549ZM66.0211 73.1553L49.1461 43.9991L47.4151 45.0009L64.2901 74.1572L66.0211 73.1553ZM47.2985 44.3117L44.9078 56.7804L46.8721 57.1571L49.2627 44.6883L47.2985 44.3117ZM45.0952 57.5756L61.5952 79.185L63.1848 77.9713L46.6848 56.3619L45.0952 57.5756ZM63.2618 79.068L66.0274 74.1461L64.2838 73.1664L61.5182 78.0883L63.2618 79.068ZM101.546 64.1406V62.3125H99.5462V64.1406H101.546ZM100.199 61.3748L97.6676 62.3123L98.3623 64.1877L100.894 63.2502L100.199 61.3748ZM97.0165 63.1938C96.7695 67.5788 96.1829 71.8693 95.2572 76.0658L97.2102 76.4967C98.1595 72.1932 98.7604 67.7962 99.0134 63.3062L97.0165 63.1938ZM95.256 76.0712C94.361 80.2378 93.142 84.2957 91.5991 88.2455L93.462 88.9732C95.0441 84.923 96.2939 80.7622 97.2114 76.4913L95.256 76.0712ZM92.3726 89.5968L97.0601 90.3468L97.3761 88.3719L92.6886 87.6219L92.3726 89.5968ZM98.1893 89.5974C99.3533 84.847 100.205 80.3562 100.741 76.1259L98.7573 75.8741C98.2315 80.0188 97.3953 84.4342 96.2468 89.1214L98.1893 89.5974ZM100.741 76.1249C101.277 71.8709 101.546 67.8756 101.546 64.1406H99.5462C99.5462 67.7806 99.284 71.6916 98.7572 75.8751L100.741 76.1249Z" fill="black" mask="url(#path-1-outside-1_22_12)"/>
</g>
<g filter="url(#filter1_d_22_12)">
<mask id="path-3-outside-2_22_12" maskUnits="userSpaceOnUse" x="4" y="8" width="55" height="86" fill="black">
<rect fill="white" x="4" y="8" width="55" height="86"/>
<path d="M38.2993 26.8594C38.2993 28.4219 37.7212 29.7656 36.5649 30.8906C35.4087 32.0156 34.0493 32.5781 32.4868 32.5781C30.8931 32.5781 29.5024 32.0156 28.3149 30.8906C27.1587 29.7656 26.5806 28.4219 26.5806 26.8594C26.5806 25.2344 27.1431 23.8438 28.2681 22.6875C29.4243 21.5312 30.8306 20.9531 32.4868 20.9531C34.0806 20.9531 35.4399 21.5312 36.5649 22.6875C37.7212 23.8438 38.2993 25.2344 38.2993 26.8594ZM57.3774 88.6406L41.0649 89.6719L38.5337 53.7188L21.8931 55.1719L23.2524 92.3906L5.20556 89.5312L8.76806 10.2188L19.2681 9.14062L21.0962 37.125L44.9087 38.2031L44.1587 9.75L56.4868 9.98438L54.0962 35.0156C53.6899 39.2031 53.3931 42.3438 53.2056 44.4375C53.0181 46.5 52.9243 47.5312 52.9243 47.5312C52.9243 48.625 52.9556 49.75 53.0181 50.9062C53.1118 52.0312 53.2524 53.2031 53.4399 54.4219C53.7524 56.5156 53.9712 58.1406 54.0962 59.2969C54.2524 60.4219 54.3462 61.0781 54.3774 61.2656L57.3774 88.6406ZM45.5181 46.1719L45.2837 43.0781L21.3306 41.4375L21.5649 48.8438L45.5181 46.1719Z"/>
</mask>
<path d="M38.2993 26.8594C38.2993 28.4219 37.7212 29.7656 36.5649 30.8906C35.4087 32.0156 34.0493 32.5781 32.4868 32.5781C30.8931 32.5781 29.5024 32.0156 28.3149 30.8906C27.1587 29.7656 26.5806 28.4219 26.5806 26.8594C26.5806 25.2344 27.1431 23.8438 28.2681 22.6875C29.4243 21.5312 30.8306 20.9531 32.4868 20.9531C34.0806 20.9531 35.4399 21.5312 36.5649 22.6875C37.7212 23.8438 38.2993 25.2344 38.2993 26.8594ZM57.3774 88.6406L41.0649 89.6719L38.5337 53.7188L21.8931 55.1719L23.2524 92.3906L5.20556 89.5312L8.76806 10.2188L19.2681 9.14062L21.0962 37.125L44.9087 38.2031L44.1587 9.75L56.4868 9.98438L54.0962 35.0156C53.6899 39.2031 53.3931 42.3438 53.2056 44.4375C53.0181 46.5 52.9243 47.5312 52.9243 47.5312C52.9243 48.625 52.9556 49.75 53.0181 50.9062C53.1118 52.0312 53.2524 53.2031 53.4399 54.4219C53.7524 56.5156 53.9712 58.1406 54.0962 59.2969C54.2524 60.4219 54.3462 61.0781 54.3774 61.2656L57.3774 88.6406ZM45.5181 46.1719L45.2837 43.0781L21.3306 41.4375L21.5649 48.8438L45.5181 46.1719Z" fill="white"/>
<path d="M28.3149 30.8906L27.6175 31.6074L27.6272 31.6166L28.3149 30.8906ZM28.2681 22.6875L27.5609 21.9803L27.5513 21.9901L28.2681 22.6875ZM36.5649 22.6875L35.8481 23.3849L35.8578 23.3946L36.5649 22.6875ZM57.3774 88.6406L57.4405 89.6386L58.4856 89.5726L58.3715 88.5317L57.3774 88.6406ZM41.0649 89.6719L40.0674 89.7421L40.1371 90.7325L41.128 90.6699L41.0649 89.6719ZM38.5337 53.7188L39.5312 53.6485L39.4598 52.6341L38.4467 52.7225L38.5337 53.7188ZM21.8931 55.1719L21.8061 54.1757L20.859 54.2584L20.8937 55.2084L21.8931 55.1719ZM23.2524 92.3906L23.0959 93.3783L24.2961 93.5685L24.2518 92.3541L23.2524 92.3906ZM5.20556 89.5312L4.20657 89.4864L4.16647 90.3791L5.04907 90.5189L5.20556 89.5312ZM8.76806 10.2188L8.66592 9.22398L7.80778 9.31209L7.76907 10.1739L8.76806 10.2188ZM19.2681 9.14062L20.2659 9.07544L20.1983 8.03985L19.1659 8.14585L19.2681 9.14062ZM21.0962 37.125L20.0983 37.1902L20.1567 38.0835L21.051 38.124L21.0962 37.125ZM44.9087 38.2031L44.8635 39.2021L45.9366 39.2507L45.9083 38.1768L44.9087 38.2031ZM44.1587 9.75L44.1777 8.75018L43.1315 8.73029L43.159 9.77635L44.1587 9.75ZM56.4868 9.98438L57.4823 10.0794L57.5849 9.00507L56.5058 8.98456L56.4868 9.98438ZM54.0962 35.0156L55.0915 35.1122L55.0917 35.1107L54.0962 35.0156ZM53.2056 44.4375L54.2015 44.528L54.2016 44.5267L53.2056 44.4375ZM52.9243 47.5312L51.9284 47.4407L51.9243 47.4859V47.5312H52.9243ZM53.0181 50.9062L52.0195 50.9602L52.0203 50.9748L52.0215 50.9893L53.0181 50.9062ZM53.4399 54.4219L54.429 54.2743L54.4283 54.2698L53.4399 54.4219ZM54.0962 59.2969L53.102 59.4044L53.1036 59.4194L53.1057 59.4344L54.0962 59.2969ZM54.3774 61.2656L55.3715 61.1567L55.3684 61.1288L55.3638 61.1012L54.3774 61.2656ZM45.5181 46.1719L45.6289 47.1657L46.5881 47.0587L46.5152 46.0963L45.5181 46.1719ZM45.2837 43.0781L46.2808 43.0026L46.2155 42.1396L45.352 42.0805L45.2837 43.0781ZM21.3306 41.4375L21.3989 40.4398L20.2961 40.3643L20.3311 41.4691L21.3306 41.4375ZM21.5649 48.8438L20.5654 48.8754L20.5997 49.9576L21.6758 49.8376L21.5649 48.8438ZM37.2993 26.8594C37.2993 28.1422 36.8374 29.2303 35.8676 30.1739L37.2623 31.6074C38.605 30.301 39.2993 28.7015 39.2993 26.8594H37.2993ZM35.8676 30.1739C34.8913 31.1238 33.7796 31.5781 32.4868 31.5781V33.5781C34.3191 33.5781 35.9261 32.9074 37.2623 31.6074L35.8676 30.1739ZM32.4868 31.5781C31.1563 31.5781 30.0099 31.1189 29.0027 30.1647L27.6272 31.6166C28.995 32.9124 30.6298 33.5781 32.4868 33.5781V31.5781ZM29.0123 30.1739C28.0425 29.2303 27.5806 28.1422 27.5806 26.8594H25.5806C25.5806 28.7015 26.2749 30.301 27.6176 31.6074L29.0123 30.1739ZM27.5806 26.8594C27.5806 25.4927 28.0429 24.3529 28.9848 23.3849L27.5513 21.9901C26.2432 23.3346 25.5806 24.976 25.5806 26.8594H27.5806ZM28.9752 23.3946C29.9412 22.4286 31.0919 21.9531 32.4868 21.9531V19.9531C30.5692 19.9531 28.9074 20.6339 27.561 21.9804L28.9752 23.3946ZM32.4868 21.9531C33.8069 21.9531 34.9089 22.4194 35.8482 23.3849L37.2817 21.9901C35.971 20.6431 34.3542 19.9531 32.4868 19.9531V21.9531ZM35.8578 23.3946C36.8279 24.3646 37.2993 25.5015 37.2993 26.8594H39.2993C39.2993 24.9673 38.6145 23.3229 37.272 21.9804L35.8578 23.3946ZM57.3143 87.6426L41.0018 88.6739L41.128 90.6699L57.4405 89.6386L57.3143 87.6426ZM42.0625 89.6016L39.5312 53.6485L37.5362 53.789L40.0674 89.7421L42.0625 89.6016ZM38.4467 52.7225L21.8061 54.1757L21.9801 56.1681L38.6207 54.715L38.4467 52.7225ZM20.8937 55.2084L22.2531 92.4271L24.2518 92.3541L22.8924 55.1354L20.8937 55.2084ZM23.4089 91.4029L5.36205 88.5436L5.04907 90.5189L23.0959 93.3783L23.4089 91.4029ZM6.20456 89.5761L9.76706 10.2636L7.76907 10.1739L4.20657 89.4864L6.20456 89.5761ZM8.8702 11.2135L19.3702 10.1354L19.1659 8.14585L8.66592 9.22398L8.8702 11.2135ZM18.2702 9.20581L20.0983 37.1902L22.0941 37.0598L20.2659 9.07544L18.2702 9.20581ZM21.051 38.124L44.8635 39.2021L44.9539 37.2041L21.1414 36.126L21.051 38.124ZM45.9083 38.1768L45.1583 9.72365L43.159 9.77635L43.909 38.2295L45.9083 38.1768ZM44.1397 10.7498L56.4678 10.9842L56.5058 8.98456L44.1777 8.75018L44.1397 10.7498ZM55.4913 9.8893L53.1007 34.9206L55.0917 35.1107L57.4823 10.0794L55.4913 9.8893ZM53.1009 34.9191C52.6946 39.1071 52.3974 42.2507 52.2095 44.3483L54.2016 44.5267C54.3887 42.4368 54.6853 39.2991 55.0915 35.1122L53.1009 34.9191ZM52.2097 44.347C52.2093 44.351 52.2089 44.355 52.2086 44.359C52.2082 44.3631 52.2078 44.3671 52.2075 44.3711C52.2071 44.3751 52.2067 44.3791 52.2064 44.3831C52.206 44.3871 52.2057 44.3911 52.2053 44.3951C52.2049 44.3991 52.2046 44.4031 52.2042 44.4071C52.2038 44.4111 52.2035 44.4151 52.2031 44.419C52.2028 44.423 52.2024 44.427 52.202 44.431C52.2017 44.435 52.2013 44.4389 52.201 44.4429C52.2006 44.4469 52.2002 44.4508 52.1999 44.4548C52.1995 44.4587 52.1992 44.4627 52.1988 44.4666C52.1984 44.4706 52.1981 44.4745 52.1977 44.4785C52.1974 44.4824 52.197 44.4864 52.1966 44.4903C52.1963 44.4942 52.1959 44.4981 52.1956 44.5021C52.1952 44.506 52.1949 44.5099 52.1945 44.5138C52.1941 44.5178 52.1938 44.5217 52.1934 44.5256C52.1931 44.5295 52.1927 44.5334 52.1924 44.5373C52.192 44.5412 52.1917 44.5451 52.1913 44.549C52.1909 44.5529 52.1906 44.5568 52.1902 44.5607C52.1899 44.5646 52.1895 44.5684 52.1892 44.5723C52.1888 44.5762 52.1885 44.5801 52.1881 44.5839C52.1878 44.5878 52.1874 44.5917 52.1871 44.5955C52.1867 44.5994 52.1864 44.6033 52.186 44.6071C52.1857 44.611 52.1853 44.6148 52.185 44.6187C52.1846 44.6225 52.1843 44.6264 52.1839 44.6302C52.1836 44.634 52.1832 44.6379 52.1829 44.6417C52.1825 44.6455 52.1822 44.6494 52.1818 44.6532C52.1815 44.657 52.1811 44.6608 52.1808 44.6647C52.1804 44.6685 52.1801 44.6723 52.1797 44.6761C52.1794 44.6799 52.1791 44.6837 52.1787 44.6875C52.1784 44.6913 52.178 44.6951 52.1777 44.6989C52.1773 44.7027 52.177 44.7065 52.1766 44.7103C52.1763 44.714 52.176 44.7178 52.1756 44.7216C52.1753 44.7254 52.1749 44.7291 52.1746 44.7329C52.1742 44.7367 52.1739 44.7404 52.1736 44.7442C52.1732 44.748 52.1729 44.7517 52.1725 44.7555C52.1722 44.7592 52.1718 44.763 52.1715 44.7667C52.1712 44.7705 52.1708 44.7742 52.1705 44.778C52.1702 44.7817 52.1698 44.7854 52.1695 44.7892C52.1691 44.7929 52.1688 44.7966 52.1685 44.8003C52.1681 44.8041 52.1678 44.8078 52.1674 44.8115C52.1671 44.8152 52.1668 44.8189 52.1664 44.8226C52.1661 44.8263 52.1658 44.83 52.1654 44.8337C52.1651 44.8374 52.1647 44.8411 52.1644 44.8448C52.1641 44.8485 52.1637 44.8522 52.1634 44.8559C52.1631 44.8595 52.1627 44.8632 52.1624 44.8669C52.1621 44.8706 52.1617 44.8742 52.1614 44.8779C52.1611 44.8816 52.1607 44.8852 52.1604 44.8889C52.1601 44.8925 52.1597 44.8962 52.1594 44.8999C52.1591 44.9035 52.1587 44.9072 52.1584 44.9108C52.1581 44.9144 52.1577 44.9181 52.1574 44.9217C52.1571 44.9253 52.1568 44.929 52.1564 44.9326C52.1561 44.9362 52.1558 44.9398 52.1554 44.9435C52.1551 44.9471 52.1548 44.9507 52.1545 44.9543C52.1541 44.9579 52.1538 44.9615 52.1535 44.9651C52.1531 44.9687 52.1528 44.9723 52.1525 44.9759C52.1522 44.9795 52.1518 44.9831 52.1515 44.9867C52.1512 44.9903 52.1509 44.9939 52.1505 44.9975C52.1502 45.001 52.1499 45.0046 52.1496 45.0082C52.1492 45.0118 52.1489 45.0153 52.1486 45.0189C52.1483 45.0225 52.1479 45.026 52.1476 45.0296C52.1473 45.0331 52.147 45.0367 52.1466 45.0402C52.1463 45.0438 52.146 45.0473 52.1457 45.0509C52.1454 45.0544 52.145 45.0579 52.1447 45.0615C52.1444 45.065 52.1441 45.0685 52.1438 45.0721C52.1434 45.0756 52.1431 45.0791 52.1428 45.0826C52.1425 45.0861 52.1422 45.0897 52.1418 45.0932C52.1415 45.0967 52.1412 45.1002 52.1409 45.1037C52.1406 45.1072 52.1402 45.1107 52.1399 45.1142C52.1396 45.1177 52.1393 45.1212 52.139 45.1246C52.1387 45.1281 52.1383 45.1316 52.138 45.1351C52.1377 45.1386 52.1374 45.142 52.1371 45.1455C52.1368 45.149 52.1364 45.1524 52.1361 45.1559C52.1358 45.1594 52.1355 45.1628 52.1352 45.1663C52.1349 45.1697 52.1346 45.1732 52.1342 45.1766C52.1339 45.1801 52.1336 45.1835 52.1333 45.187C52.133 45.1904 52.1327 45.1938 52.1324 45.1973C52.1321 45.2007 52.1317 45.2041 52.1314 45.2075C52.1311 45.211 52.1308 45.2144 52.1305 45.2178C52.1302 45.2212 52.1299 45.2246 52.1296 45.228C52.1293 45.2314 52.129 45.2348 52.1286 45.2382C52.1283 45.2416 52.128 45.245 52.1277 45.2484C52.1274 45.2518 52.1271 45.2552 52.1268 45.2586C52.1265 45.262 52.1262 45.2653 52.1259 45.2687C52.1256 45.2721 52.1253 45.2755 52.125 45.2788C52.1246 45.2822 52.1243 45.2856 52.124 45.2889C52.1237 45.2923 52.1234 45.2956 52.1231 45.299C52.1228 45.3023 52.1225 45.3057 52.1222 45.309C52.1219 45.3124 52.1216 45.3157 52.1213 45.319C52.121 45.3224 52.1207 45.3257 52.1204 45.329C52.1201 45.3324 52.1198 45.3357 52.1195 45.339C52.1192 45.3423 52.1189 45.3457 52.1186 45.349C52.1183 45.3523 52.118 45.3556 52.1177 45.3589C52.1174 45.3622 52.1171 45.3655 52.1168 45.3688C52.1165 45.3721 52.1162 45.3754 52.1159 45.3787C52.1156 45.382 52.1153 45.3852 52.115 45.3885C52.1147 45.3918 52.1144 45.3951 52.1141 45.3984C52.1138 45.4016 52.1135 45.4049 52.1132 45.4082C52.1129 45.4114 52.1126 45.4147 52.1123 45.4179C52.112 45.4212 52.1117 45.4245 52.1114 45.4277C52.1111 45.431 52.1108 45.4342 52.1105 45.4374C52.1102 45.4407 52.1099 45.4439 52.1097 45.4472C52.1094 45.4504 52.1091 45.4536 52.1088 45.4568C52.1085 45.4601 52.1082 45.4633 52.1079 45.4665C52.1076 45.4697 52.1073 45.4729 52.107 45.4762C52.1067 45.4794 52.1064 45.4826 52.1061 45.4858C52.1059 45.489 52.1056 45.4922 52.1053 45.4954C52.105 45.4986 52.1047 45.5018 52.1044 45.5049C52.1041 45.5081 52.1038 45.5113 52.1035 45.5145C52.1032 45.5177 52.103 45.5208 52.1027 45.524C52.1024 45.5272 52.1021 45.5303 52.1018 45.5335C52.1015 45.5367 52.1012 45.5398 52.1009 45.543C52.1007 45.5461 52.1004 45.5493 52.1001 45.5524C52.0998 45.5556 52.0995 45.5587 52.0992 45.5619C52.0989 45.565 52.0987 45.5681 52.0984 45.5713C52.0981 45.5744 52.0978 45.5775 52.0975 45.5807C52.0972 45.5838 52.0969 45.5869 52.0967 45.59C52.0964 45.5931 52.0961 45.5962 52.0958 45.5993C52.0955 45.6025 52.0953 45.6056 52.095 45.6087C52.0947 45.6118 52.0944 45.6149 52.0941 45.618C52.0938 45.621 52.0936 45.6241 52.0933 45.6272C52.093 45.6303 52.0927 45.6334 52.0924 45.6365C52.0922 45.6395 52.0919 45.6426 52.0916 45.6457C52.0913 45.6487 52.091 45.6518 52.0908 45.6549C52.0905 45.6579 52.0902 45.661 52.0899 45.664C52.0897 45.6671 52.0894 45.6701 52.0891 45.6732C52.0888 45.6762 52.0886 45.6793 52.0883 45.6823C52.088 45.6853 52.0877 45.6884 52.0874 45.6914C52.0872 45.6944 52.0869 45.6975 52.0866 45.7005C52.0863 45.7035 52.0861 45.7065 52.0858 45.7095C52.0855 45.7125 52.0853 45.7156 52.085 45.7186C52.0847 45.7216 52.0844 45.7246 52.0842 45.7276C52.0839 45.7306 52.0836 45.7336 52.0833 45.7365C52.0831 45.7395 52.0828 45.7425 52.0825 45.7455C52.0823 45.7485 52.082 45.7515 52.0817 45.7544C52.0814 45.7574 52.0812 45.7604 52.0809 45.7633C52.0806 45.7663 52.0804 45.7693 52.0801 45.7722C52.0798 45.7752 52.0796 45.7781 52.0793 45.7811C52.079 45.784 52.0788 45.787 52.0785 45.7899C52.0782 45.7929 52.078 45.7958 52.0777 45.7988C52.0774 45.8017 52.0772 45.8046 52.0769 45.8075C52.0766 45.8105 52.0764 45.8134 52.0761 45.8163C52.0758 45.8192 52.0756 45.8221 52.0753 45.8251C52.075 45.828 52.0748 45.8309 52.0745 45.8338C52.0742 45.8367 52.074 45.8396 52.0737 45.8425C52.0735 45.8454 52.0732 45.8483 52.0729 45.8512C52.0727 45.854 52.0724 45.8569 52.0721 45.8598C52.0719 45.8627 52.0716 45.8656 52.0714 45.8684C52.0711 45.8713 52.0708 45.8742 52.0706 45.877C52.0703 45.8799 52.0701 45.8828 52.0698 45.8856C52.0695 45.8885 52.0693 45.8913 52.069 45.8942C52.0688 45.897 52.0685 45.8999 52.0682 45.9027C52.068 45.9055 52.0677 45.9084 52.0675 45.9112C52.0672 45.914 52.067 45.9169 52.0667 45.9197C52.0664 45.9225 52.0662 45.9253 52.0659 45.9282C52.0657 45.931 52.0654 45.9338 52.0652 45.9366C52.0649 45.9394 52.0646 45.9422 52.0644 45.945C52.0641 45.9478 52.0639 45.9506 52.0636 45.9534C52.0634 45.9562 52.0631 45.959 52.0629 45.9618C52.0626 45.9646 52.0624 45.9673 52.0621 45.9701C52.0619 45.9729 52.0616 45.9757 52.0614 45.9784C52.0611 45.9812 52.0609 45.984 52.0606 45.9867C52.0603 45.9895 52.0601 45.9922 52.0598 45.995C52.0596 45.9978 52.0593 46.0005 52.0591 46.0033C52.0588 46.006 52.0586 46.0087 52.0583 46.0115C52.0581 46.0142 52.0579 46.017 52.0576 46.0197C52.0574 46.0224 52.0571 46.0251 52.0569 46.0279C52.0566 46.0306 52.0564 46.0333 52.0561 46.036C52.0559 46.0387 52.0556 46.0414 52.0554 46.0441C52.0551 46.0469 52.0549 46.0496 52.0546 46.0523C52.0544 46.055 52.0542 46.0576 52.0539 46.0603C52.0537 46.063 52.0534 46.0657 52.0532 46.0684C52.0529 46.0711 52.0527 46.0738 52.0524 46.0764C52.0522 46.0791 52.052 46.0818 52.0517 46.0844C52.0515 46.0871 52.0512 46.0898 52.051 46.0924C52.0507 46.0951 52.0505 46.0978 52.0503 46.1004C52.05 46.1031 52.0498 46.1057 52.0495 46.1083C52.0493 46.111 52.0491 46.1136 52.0488 46.1163C52.0486 46.1189 52.0483 46.1215 52.0481 46.1242C52.0479 46.1268 52.0476 46.1294 52.0474 46.132C52.0472 46.1347 52.0469 46.1373 52.0467 46.1399C52.0464 46.1425 52.0462 46.1451 52.046 46.1477C52.0457 46.1503 52.0455 46.1529 52.0453 46.1555C52.045 46.1581 52.0448 46.1607 52.0445 46.1633C52.0443 46.1659 52.0441 46.1685 52.0438 46.171C52.0436 46.1736 52.0434 46.1762 52.0431 46.1788C52.0429 46.1813 52.0427 46.1839 52.0424 46.1865C52.0422 46.189 52.042 46.1916 52.0417 46.1942C52.0415 46.1967 52.0413 46.1993 52.041 46.2018C52.0408 46.2044 52.0406 46.2069 52.0404 46.2095C52.0401 46.212 52.0399 46.2145 52.0397 46.2171C52.0394 46.2196 52.0392 46.2221 52.039 46.2247C52.0387 46.2272 52.0385 46.2297 52.0383 46.2322C52.0381 46.2347 52.0378 46.2373 52.0376 46.2398C52.0374 46.2423 52.0371 46.2448 52.0369 46.2473C52.0367 46.2498 52.0365 46.2523 52.0362 46.2548C52.036 46.2573 52.0358 46.2598 52.0356 46.2622C52.0353 46.2647 52.0351 46.2672 52.0349 46.2697C52.0347 46.2722 52.0344 46.2746 52.0342 46.2771C52.034 46.2796 52.0338 46.282 52.0335 46.2845C52.0333 46.287 52.0331 46.2894 52.0329 46.2919C52.0326 46.2943 52.0324 46.2968 52.0322 46.2992C52.032 46.3017 52.0317 46.3041 52.0315 46.3066C52.0313 46.309 52.0311 46.3114 52.0309 46.3139C52.0306 46.3163 52.0304 46.3187 52.0302 46.3212C52.03 46.3236 52.0298 46.326 52.0295 46.3284C52.0293 46.3308 52.0291 46.3332 52.0289 46.3356C52.0287 46.3381 52.0284 46.3405 52.0282 46.3429C52.028 46.3453 52.0278 46.3477 52.0276 46.35C52.0274 46.3524 52.0271 46.3548 52.0269 46.3572C52.0267 46.3596 52.0265 46.362 52.0263 46.3643C52.0261 46.3667 52.0258 46.3691 52.0256 46.3715C52.0254 46.3738 52.0252 46.3762 52.025 46.3786C52.0248 46.3809 52.0246 46.3833 52.0243 46.3856C52.0241 46.388 52.0239 46.3903 52.0237 46.3927C52.0235 46.395 52.0233 46.3974 52.0231 46.3997C52.0228 46.402 52.0226 46.4044 52.0224 46.4067C52.0222 46.409 52.022 46.4114 52.0218 46.4137C52.0216 46.416 52.0214 46.4183 52.0212 46.4206C52.0209 46.4229 52.0207 46.4252 52.0205 46.4275C52.0203 46.4299 52.0201 46.4322 52.0199 46.4345C52.0197 46.4367 52.0195 46.439 52.0193 46.4413C52.0191 46.4436 52.0189 46.4459 52.0187 46.4482C52.0184 46.4505 52.0182 46.4527 52.018 46.455C52.0178 46.4573 52.0176 46.4596 52.0174 46.4618C52.0172 46.4641 52.017 46.4664 52.0168 46.4686C52.0166 46.4709 52.0164 46.4731 52.0162 46.4754C52.016 46.4776 52.0158 46.4799 52.0156 46.4821C52.0154 46.4844 52.0152 46.4866 52.015 46.4888C52.0148 46.4911 52.0145 46.4933 52.0143 46.4955C52.0141 46.4978 52.0139 46.5 52.0137 46.5022C52.0135 46.5044 52.0133 46.5066 52.0131 46.5088C52.0129 46.5111 52.0127 46.5133 52.0125 46.5155C52.0123 46.5177 52.0121 46.5199 52.0119 46.5221C52.0117 46.5243 52.0115 46.5264 52.0113 46.5286C52.0111 46.5308 52.0109 46.533 52.0107 46.5352C52.0105 46.5374 52.0103 46.5395 52.0101 46.5417C52.0099 46.5439 52.0098 46.546 52.0096 46.5482C52.0094 46.5504 52.0092 46.5525 52.009 46.5547C52.0088 46.5568 52.0086 46.559 52.0084 46.5611C52.0082 46.5633 52.008 46.5654 52.0078 46.5676C52.0076 46.5697 52.0074 46.5719 52.0072 46.574C52.007 46.5761 52.0068 46.5782 52.0066 46.5804C52.0064 46.5825 52.0062 46.5846 52.0061 46.5867C52.0059 46.5888 52.0057 46.591 52.0055 46.5931C52.0053 46.5952 52.0051 46.5973 52.0049 46.5994C52.0047 46.6015 52.0045 46.6036 52.0043 46.6057C52.0041 46.6078 52.004 46.6099 52.0038 46.6119C52.0036 46.614 52.0034 46.6161 52.0032 46.6182C52.003 46.6203 52.0028 46.6223 52.0026 46.6244C52.0024 46.6265 52.0023 46.6285 52.0021 46.6306C52.0019 46.6327 52.0017 46.6347 52.0015 46.6368C52.0013 46.6388 52.0011 46.6409 52.0009 46.6429C52.0008 46.645 52.0006 46.647 52.0004 46.649C52.0002 46.6511 52 46.6531 51.9998 46.6551C51.9996 46.6572 51.9995 46.6592 51.9993 46.6612C51.9991 46.6632 51.9989 46.6653 51.9987 46.6673C51.9986 46.6693 51.9984 46.6713 51.9982 46.6733C51.998 46.6753 51.9978 46.6773 51.9976 46.6793C51.9975 46.6813 51.9973 46.6833 51.9971 46.6853C51.9969 46.6873 51.9967 46.6893 51.9966 46.6913C51.9964 46.6932 51.9962 46.6952 51.996 46.6972C51.9958 46.6992 51.9957 46.7011 51.9955 46.7031C51.9953 46.7051 51.9951 46.707 51.9949 46.709C51.9948 46.711 51.9946 46.7129 51.9944 46.7149C51.9942 46.7168 51.9941 46.7188 51.9939 46.7207C51.9937 46.7226 51.9935 46.7246 51.9933 46.7265C51.9932 46.7285 51.993 46.7304 51.9928 46.7323C51.9926 46.7342 51.9925 46.7362 51.9923 46.7381C51.9921 46.74 51.9919 46.7419 51.9918 46.7438C51.9916 46.7457 51.9914 46.7477 51.9913 46.7496C51.9911 46.7515 51.9909 46.7534 51.9907 46.7553C51.9906 46.7572 51.9904 46.759 51.9902 46.7609C51.99 46.7628 51.9899 46.7647 51.9897 46.7666C51.9895 46.7685 51.9894 46.7703 51.9892 46.7722C51.989 46.7741 51.9889 46.776 51.9887 46.7778C51.9885 46.7797 51.9883 46.7815 51.9882 46.7834C51.988 46.7853 51.9878 46.7871 51.9877 46.789C51.9875 46.7908 51.9873 46.7927 51.9872 46.7945C51.987 46.7963 51.9868 46.7982 51.9867 46.8C51.9865 46.8018 51.9863 46.8037 51.9862 46.8055C51.986 46.8073 51.9858 46.8091 51.9857 46.811C51.9855 46.8128 51.9853 46.8146 51.9852 46.8164C51.985 46.8182 51.9848 46.82 51.9847 46.8218C51.9845 46.8236 51.9844 46.8254 51.9842 46.8272C51.984 46.829 51.9839 46.8308 51.9837 46.8326C51.9835 46.8344 51.9834 46.8362 51.9832 46.8379C51.9831 46.8397 51.9829 46.8415 51.9827 46.8433C51.9826 46.845 51.9824 46.8468 51.9823 46.8486C51.9821 46.8503 51.9819 46.8521 51.9818 46.8538C51.9816 46.8556 51.9815 46.8573 51.9813 46.8591C51.9811 46.8608 51.981 46.8626 51.9808 46.8643C51.9807 46.866 51.9805 46.8678 51.9803 46.8695C51.9802 46.8712 51.98 46.873 51.9799 46.8747C51.9797 46.8764 51.9796 46.8781 51.9794 46.8798C51.9793 46.8816 51.9791 46.8833 51.9789 46.885C51.9788 46.8867 51.9786 46.8884 51.9785 46.8901C51.9783 46.8918 51.9782 46.8935 51.978 46.8952C51.9779 46.8969 51.9777 46.8986 51.9776 46.9002C51.9774 46.9019 51.9772 46.9036 51.9771 46.9053C51.9769 46.907 51.9768 46.9086 51.9766 46.9103C51.9765 46.912 51.9763 46.9136 51.9762 46.9153C51.976 46.917 51.9759 46.9186 51.9757 46.9203C51.9756 46.9219 51.9754 46.9236 51.9753 46.9252C51.9751 46.9268 51.975 46.9285 51.9748 46.9301C51.9747 46.9318 51.9745 46.9334 51.9744 46.935C51.9742 46.9366 51.9741 46.9383 51.9739 46.9399C51.9738 46.9415 51.9737 46.9431 51.9735 46.9447C51.9734 46.9464 51.9732 46.948 51.9731 46.9496C51.9729 46.9512 51.9728 46.9528 51.9726 46.9544C51.9725 46.956 51.9723 46.9576 51.9722 46.9592C51.9721 46.9607 51.9719 46.9623 51.9718 46.9639C51.9716 46.9655 51.9715 46.9671 51.9713 46.9686C51.9712 46.9702 51.9711 46.9718 51.9709 46.9734C51.9708 46.9749 51.9706 46.9765 51.9705 46.978C51.9703 46.9796 51.9702 46.9812 51.9701 46.9827C51.9699 46.9843 51.9698 46.9858 51.9696 46.9873C51.9695 46.9889 51.9694 46.9904 51.9692 46.992C51.9691 46.9935 51.9689 46.995 51.9688 46.9965C51.9687 46.9981 51.9685 46.9996 51.9684 47.0011C51.9682 47.0026 51.9681 47.0041 51.968 47.0057C51.9678 47.0072 51.9677 47.0087 51.9676 47.0102C51.9674 47.0117 51.9673 47.0132 51.9672 47.0147C51.967 47.0162 51.9669 47.0177 51.9667 47.0191C51.9666 47.0206 51.9665 47.0221 51.9663 47.0236C51.9662 47.0251 51.9661 47.0266 51.9659 47.028C51.9658 47.0295 51.9657 47.031 51.9655 47.0324C51.9654 47.0339 51.9653 47.0353 51.9651 47.0368C51.965 47.0383 51.9649 47.0397 51.9647 47.0412C51.9646 47.0426 51.9645 47.044 51.9643 47.0455C51.9642 47.0469 51.9641 47.0484 51.964 47.0498C51.9638 47.0512 51.9637 47.0527 51.9636 47.0541C51.9634 47.0555 51.9633 47.0569 51.9632 47.0583C51.9631 47.0598 51.9629 47.0612 51.9628 47.0626C51.9627 47.064 51.9625 47.0654 51.9624 47.0668C51.9623 47.0682 51.9622 47.0696 51.962 47.071C51.9619 47.0724 51.9618 47.0738 51.9617 47.0751C51.9615 47.0765 51.9614 47.0779 51.9613 47.0793C51.9612 47.0807 51.961 47.082 51.9609 47.0834C51.9608 47.0848 51.9607 47.0861 51.9605 47.0875C51.9604 47.0889 51.9603 47.0902 51.9602 47.0916C51.96 47.0929 51.9599 47.0943 51.9598 47.0956C51.9597 47.097 51.9595 47.0983 51.9594 47.0996C51.9593 47.101 51.9592 47.1023 51.9591 47.1036C51.9589 47.105 51.9588 47.1063 51.9587 47.1076C51.9586 47.1089 51.9585 47.1103 51.9583 47.1116C51.9582 47.1129 51.9581 47.1142 51.958 47.1155C51.9579 47.1168 51.9577 47.1181 51.9576 47.1194C51.9575 47.1207 51.9574 47.122 51.9573 47.1233C51.9572 47.1246 51.957 47.1259 51.9569 47.1272C51.9568 47.1284 51.9567 47.1297 51.9566 47.131C51.9565 47.1323 51.9563 47.1335 51.9562 47.1348C51.9561 47.1361 51.956 47.1373 51.9559 47.1386C51.9558 47.1399 51.9557 47.1411 51.9555 47.1424C51.9554 47.1436 51.9553 47.1449 51.9552 47.1461C51.9551 47.1473 51.955 47.1486 51.9549 47.1498C51.9548 47.1511 51.9546 47.1523 51.9545 47.1535C51.9544 47.1547 51.9543 47.156 51.9542 47.1572C51.9541 47.1584 51.954 47.1596 51.9539 47.1608C51.9538 47.162 51.9536 47.1632 51.9535 47.1644C51.9534 47.1657 51.9533 47.1669 51.9532 47.168C51.9531 47.1692 51.953 47.1704 51.9529 47.1716C51.9528 47.1728 51.9527 47.174 51.9526 47.1752C51.9525 47.1764 51.9523 47.1775 51.9522 47.1787C51.9521 47.1799 51.952 47.181 51.9519 47.1822C51.9518 47.1834 51.9517 47.1845 51.9516 47.1857C51.9515 47.1868 51.9514 47.188 51.9513 47.1891C51.9512 47.1903 51.9511 47.1914 51.951 47.1926C51.9509 47.1937 51.9508 47.1949 51.9507 47.196C51.9506 47.1971 51.9505 47.1983 51.9504 47.1994C51.9503 47.2005 51.9502 47.2016 51.9501 47.2027C51.95 47.2039 51.9499 47.205 51.9497 47.2061C51.9496 47.2072 51.9495 47.2083 51.9494 47.2094C51.9493 47.2105 51.9492 47.2116 51.9492 47.2127C51.9491 47.2138 51.949 47.2149 51.9489 47.216C51.9488 47.217 51.9487 47.2181 51.9486 47.2192C51.9485 47.2203 51.9484 47.2214 51.9483 47.2224C51.9482 47.2235 51.9481 47.2246 51.948 47.2256C51.9479 47.2267 51.9478 47.2277 51.9477 47.2288C51.9476 47.2299 51.9475 47.2309 51.9474 47.232C51.9473 47.233 51.9472 47.234 51.9471 47.2351C51.947 47.2361 51.9469 47.2372 51.9468 47.2382C51.9467 47.2392 51.9466 47.2402 51.9466 47.2413C51.9465 47.2423 51.9464 47.2433 51.9463 47.2443C51.9462 47.2453 51.9461 47.2463 51.946 47.2474C51.9459 47.2484 51.9458 47.2494 51.9457 47.2504C51.9456 47.2514 51.9455 47.2524 51.9455 47.2533C51.9454 47.2543 51.9453 47.2553 51.9452 47.2563C51.9451 47.2573 51.945 47.2583 51.9449 47.2593C51.9448 47.2602 51.9447 47.2612 51.9447 47.2622C51.9446 47.2631 51.9445 47.2641 51.9444 47.2651C51.9443 47.266 51.9442 47.267 51.9441 47.2679C51.944 47.2689 51.944 47.2698 51.9439 47.2708C51.9438 47.2717 51.9437 47.2727 51.9436 47.2736C51.9435 47.2745 51.9434 47.2755 51.9434 47.2764C51.9433 47.2773 51.9432 47.2782 51.9431 47.2792C51.943 47.2801 51.9429 47.281 51.9429 47.2819C51.9428 47.2828 51.9427 47.2837 51.9426 47.2846C51.9425 47.2855 51.9424 47.2864 51.9424 47.2873C51.9423 47.2882 51.9422 47.2891 51.9421 47.29C51.942 47.2909 51.942 47.2918 51.9419 47.2927C51.9418 47.2936 51.9417 47.2944 51.9416 47.2953C51.9416 47.2962 51.9415 47.297 51.9414 47.2979C51.9413 47.2988 51.9412 47.2996 51.9412 47.3005C51.9411 47.3014 51.941 47.3022 51.9409 47.3031C51.9409 47.3039 51.9408 47.3048 51.9407 47.3056C51.9406 47.3064 51.9406 47.3073 51.9405 47.3081C51.9404 47.3089 51.9403 47.3098 51.9402 47.3106C51.9402 47.3114 51.9401 47.3122 51.94 47.3131C51.9399 47.3139 51.9399 47.3147 51.9398 47.3155C51.9397 47.3163 51.9397 47.3171 51.9396 47.3179C51.9395 47.3187 51.9394 47.3195 51.9394 47.3203C51.9393 47.3211 51.9392 47.3219 51.9391 47.3227C51.9391 47.3235 51.939 47.3243 51.9389 47.325C51.9389 47.3258 51.9388 47.3266 51.9387 47.3274C51.9387 47.3281 51.9386 47.3289 51.9385 47.3297C51.9384 47.3304 51.9384 47.3312 51.9383 47.332C51.9382 47.3327 51.9382 47.3335 51.9381 47.3342C51.938 47.3349 51.938 47.3357 51.9379 47.3364C51.9378 47.3372 51.9378 47.3379 51.9377 47.3386C51.9376 47.3394 51.9376 47.3401 51.9375 47.3408C51.9374 47.3415 51.9374 47.3423 51.9373 47.343C51.9372 47.3437 51.9372 47.3444 51.9371 47.3451C51.937 47.3458 51.937 47.3465 51.9369 47.3472C51.9369 47.3479 51.9368 47.3486 51.9367 47.3493C51.9367 47.35 51.9366 47.3507 51.9365 47.3514C51.9365 47.3521 51.9364 47.3528 51.9364 47.3534C51.9363 47.3541 51.9362 47.3548 51.9362 47.3554C51.9361 47.3561 51.9361 47.3568 51.936 47.3574C51.9359 47.3581 51.9359 47.3588 51.9358 47.3594C51.9358 47.3601 51.9357 47.3607 51.9356 47.3614C51.9356 47.362 51.9355 47.3626 51.9355 47.3633C51.9354 47.3639 51.9353 47.3646 51.9353 47.3652C51.9352 47.3658 51.9352 47.3664 51.9351 47.3671C51.9351 47.3677 51.935 47.3683 51.9349 47.3689C51.9349 47.3695 51.9348 47.3701 51.9348 47.3707C51.9347 47.3713 51.9347 47.3719 51.9346 47.3725C51.9346 47.3731 51.9345 47.3737 51.9345 47.3743C51.9344 47.3749 51.9343 47.3755 51.9343 47.3761C51.9342 47.3767 51.9342 47.3772 51.9341 47.3778C51.9341 47.3784 51.934 47.379 51.934 47.3795C51.9339 47.3801 51.9339 47.3807 51.9338 47.3812C51.9338 47.3818 51.9337 47.3823 51.9337 47.3829C51.9336 47.3834 51.9336 47.384 51.9335 47.3845C51.9335 47.3851 51.9334 47.3856 51.9334 47.3861C51.9333 47.3867 51.9333 47.3872 51.9332 47.3877C51.9332 47.3883 51.9331 47.3888 51.9331 47.3893C51.933 47.3898 51.933 47.3903 51.933 47.3909C51.9329 47.3914 51.9329 47.3919 51.9328 47.3924C51.9328 47.3929 51.9327 47.3934 51.9327 47.3939C51.9326 47.3944 51.9326 47.3949 51.9325 47.3953C51.9325 47.3958 51.9325 47.3963 51.9324 47.3968C51.9324 47.3973 51.9323 47.3978 51.9323 47.3982C51.9322 47.3987 51.9322 47.3992 51.9322 47.3996C51.9321 47.4001 51.9321 47.4006 51.932 47.401C51.932 47.4015 51.9319 47.4019 51.9319 47.4024C51.9319 47.4028 51.9318 47.4033 51.9318 47.4037C51.9317 47.4041 51.9317 47.4046 51.9317 47.405C51.9316 47.4054 51.9316 47.4059 51.9315 47.4063C51.9315 47.4067 51.9315 47.4071 51.9314 47.4076C51.9314 47.408 51.9314 47.4084 51.9313 47.4088C51.9313 47.4092 51.9312 47.4096 51.9312 47.41C51.9312 47.4104 51.9311 47.4108 51.9311 47.4112C51.9311 47.4116 51.931 47.412 51.931 47.4124C51.931 47.4128 51.9309 47.4131 51.9309 47.4135C51.9309 47.4139 51.9308 47.4143 51.9308 47.4146C51.9308 47.415 51.9307 47.4154 51.9307 47.4157C51.9307 47.4161 51.9306 47.4165 51.9306 47.4168C51.9306 47.4172 51.9305 47.4175 51.9305 47.4179C51.9305 47.4182 51.9304 47.4186 51.9304 47.4189C51.9304 47.4192 51.9303 47.4196 51.9303 47.4199C51.9303 47.4202 51.9303 47.4206 51.9302 47.4209C51.9302 47.4212 51.9302 47.4215 51.9301 47.4218C51.9301 47.4221 51.9301 47.4225 51.93 47.4228C51.93 47.4231 51.93 47.4234 51.93 47.4237C51.9299 47.424 51.9299 47.4243 51.9299 47.4246C51.9299 47.4249 51.9298 47.4251 51.9298 47.4254C51.9298 47.4257 51.9298 47.426 51.9297 47.4263C51.9297 47.4265 51.9297 47.4268 51.9297 47.4271C51.9296 47.4273 51.9296 47.4276 51.9296 47.4279C51.9296 47.4281 51.9295 47.4284 51.9295 47.4286C51.9295 47.4289 51.9295 47.4291 51.9295 47.4294C51.9294 47.4296 51.9294 47.4299 51.9294 47.4301C51.9294 47.4303 51.9293 47.4306 51.9293 47.4308C51.9293 47.431 51.9293 47.4312 51.9293 47.4315C51.9292 47.4317 51.9292 47.4319 51.9292 47.4321C51.9292 47.4323 51.9292 47.4325 51.9291 47.4327C51.9291 47.4329 51.9291 47.4331 51.9291 47.4333C51.9291 47.4335 51.9291 47.4337 51.929 47.4339C51.929 47.4341 51.929 47.4343 51.929 47.4345C51.929 47.4347 51.929 47.4348 51.9289 47.435C51.9289 47.4352 51.9289 47.4353 51.9289 47.4355C51.9289 47.4357 51.9289 47.4358 51.9288 47.436C51.9288 47.4361 51.9288 47.4363 51.9288 47.4365C51.9288 47.4366 51.9288 47.4367 51.9288 47.4369C51.9288 47.437 51.9287 47.4372 51.9287 47.4373C51.9287 47.4374 51.9287 47.4376 51.9287 47.4377C51.9287 47.4378 51.9287 47.4379 51.9287 47.4381C51.9286 47.4382 51.9286 47.4383 51.9286 47.4384C51.9286 47.4385 51.9286 47.4386 51.9286 47.4387C51.9286 47.4388 51.9286 47.4389 51.9286 47.439C51.9286 47.4391 51.9286 47.4392 51.9286 47.4393C51.9285 47.4394 51.9285 47.4395 51.9285 47.4395C51.9285 47.4396 51.9285 47.4397 51.9285 47.4398C51.9285 47.4398 51.9285 47.4399 51.9285 47.44C51.9285 47.44 51.9285 47.4401 51.9285 47.4401C51.9285 47.4402 51.9285 47.4402 51.9285 47.4403C51.9285 47.4403 51.9285 47.4404 51.9284 47.4404C51.9284 47.4405 51.9284 47.4405 51.9284 47.4405C51.9284 47.4406 51.9284 47.4406 51.9284 47.4406C51.9284 47.4406 51.9284 47.4407 51.9284 47.4407C51.9284 47.4407 51.9284 47.4407 51.9284 47.4407C51.9284 47.4407 51.9284 47.4407 52.9243 47.5312C53.9202 47.6218 53.9202 47.6218 53.9202 47.6218C53.9202 47.6218 53.9202 47.6218 53.9202 47.6217C53.9202 47.6217 53.9202 47.6217 53.9202 47.6217C53.9202 47.6217 53.9202 47.6216 53.9202 47.6216C53.9202 47.6216 53.9202 47.6215 53.9202 47.6215C53.9202 47.6215 53.9202 47.6214 53.9202 47.6214C53.9202 47.6213 53.9203 47.6213 53.9203 47.6212C53.9203 47.6212 53.9203 47.6211 53.9203 47.621C53.9203 47.621 53.9203 47.6209 53.9203 47.6208C53.9203 47.6208 53.9203 47.6207 53.9203 47.6206C53.9203 47.6205 53.9203 47.6204 53.9203 47.6204C53.9203 47.6203 53.9204 47.6202 53.9204 47.6201C53.9204 47.62 53.9204 47.6199 53.9204 47.6198C53.9204 47.6197 53.9204 47.6196 53.9204 47.6195C53.9204 47.6194 53.9204 47.6192 53.9204 47.6191C53.9205 47.619 53.9205 47.6189 53.9205 47.6188C53.9205 47.6186 53.9205 47.6185 53.9205 47.6184C53.9205 47.6182 53.9205 47.6181 53.9206 47.618C53.9206 47.6178 53.9206 47.6177 53.9206 47.6175C53.9206 47.6174 53.9206 47.6172 53.9206 47.6171C53.9207 47.6169 53.9207 47.6167 53.9207 47.6166C53.9207 47.6164 53.9207 47.6162 53.9207 47.6161C53.9207 47.6159 53.9208 47.6157 53.9208 47.6155C53.9208 47.6154 53.9208 47.6152 53.9208 47.615C53.9208 47.6148 53.9209 47.6146 53.9209 47.6144C53.9209 47.6142 53.9209 47.614 53.9209 47.6138C53.9209 47.6136 53.921 47.6134 53.921 47.6132C53.921 47.613 53.921 47.6128 53.921 47.6125C53.9211 47.6123 53.9211 47.6121 53.9211 47.6119C53.9211 47.6116 53.9212 47.6114 53.9212 47.6112C53.9212 47.6109 53.9212 47.6107 53.9212 47.6104C53.9213 47.6102 53.9213 47.61 53.9213 47.6097C53.9213 47.6094 53.9214 47.6092 53.9214 47.6089C53.9214 47.6087 53.9214 47.6084 53.9214 47.6081C53.9215 47.6079 53.9215 47.6076 53.9215 47.6073C53.9215 47.6071 53.9216 47.6068 53.9216 47.6065C53.9216 47.6062 53.9216 47.6059 53.9217 47.6056C53.9217 47.6053 53.9217 47.605 53.9218 47.6047C53.9218 47.6044 53.9218 47.6041 53.9218 47.6038C53.9219 47.6035 53.9219 47.6032 53.9219 47.6029C53.922 47.6026 53.922 47.6023 53.922 47.6019C53.922 47.6016 53.9221 47.6013 53.9221 47.601C53.9221 47.6006 53.9222 47.6003 53.9222 47.6C53.9222 47.5996 53.9223 47.5993 53.9223 47.5989C53.9223 47.5986 53.9223 47.5982 53.9224 47.5979C53.9224 47.5975 53.9224 47.5972 53.9225 47.5968C53.9225 47.5965 53.9225 47.5961 53.9226 47.5957C53.9226 47.5953 53.9226 47.595 53.9227 47.5946C53.9227 47.5942 53.9227 47.5938 53.9228 47.5934C53.9228 47.5931 53.9229 47.5927 53.9229 47.5923C53.9229 47.5919 53.923 47.5915 53.923 47.5911C53.923 47.5907 53.9231 47.5903 53.9231 47.5899C53.9231 47.5895 53.9232 47.5891 53.9232 47.5886C53.9233 47.5882 53.9233 47.5878 53.9233 47.5874C53.9234 47.5869 53.9234 47.5865 53.9235 47.5861C53.9235 47.5857 53.9235 47.5852 53.9236 47.5848C53.9236 47.5843 53.9237 47.5839 53.9237 47.5834C53.9237 47.583 53.9238 47.5825 53.9238 47.5821C53.9239 47.5816 53.9239 47.5812 53.9239 47.5807C53.924 47.5802 53.924 47.5798 53.9241 47.5793C53.9241 47.5788 53.9242 47.5784 53.9242 47.5779C53.9242 47.5774 53.9243 47.5769 53.9243 47.5764C53.9244 47.5759 53.9244 47.5754 53.9245 47.5749C53.9245 47.5744 53.9246 47.5739 53.9246 47.5734C53.9246 47.5729 53.9247 47.5724 53.9247 47.5719C53.9248 47.5714 53.9248 47.5709 53.9249 47.5704C53.9249 47.5699 53.925 47.5693 53.925 47.5688C53.9251 47.5683 53.9251 47.5677 53.9252 47.5672C53.9252 47.5667 53.9253 47.5661 53.9253 47.5656C53.9254 47.5651 53.9254 47.5645 53.9255 47.564C53.9255 47.5634 53.9256 47.5629 53.9256 47.5623C53.9257 47.5617 53.9257 47.5612 53.9258 47.5606C53.9258 47.56 53.9259 47.5595 53.9259 47.5589C53.926 47.5583 53.926 47.5577 53.9261 47.5572C53.9261 47.5566 53.9262 47.556 53.9262 47.5554C53.9263 47.5548 53.9263 47.5542 53.9264 47.5536C53.9265 47.553 53.9265 47.5524 53.9266 47.5518C53.9266 47.5512 53.9267 47.5506 53.9267 47.55C53.9268 47.5494 53.9268 47.5488 53.9269 47.5481C53.927 47.5475 53.927 47.5469 53.9271 47.5463C53.9271 47.5456 53.9272 47.545 53.9272 47.5444C53.9273 47.5437 53.9274 47.5431 53.9274 47.5424C53.9275 47.5418 53.9275 47.5411 53.9276 47.5405C53.9277 47.5398 53.9277 47.5392 53.9278 47.5385C53.9278 47.5379 53.9279 47.5372 53.928 47.5365C53.928 47.5359 53.9281 47.5352 53.9281 47.5345C53.9282 47.5338 53.9283 47.5331 53.9283 47.5325C53.9284 47.5318 53.9285 47.5311 53.9285 47.5304C53.9286 47.5297 53.9286 47.529 53.9287 47.5283C53.9288 47.5276 53.9288 47.5269 53.9289 47.5262C53.929 47.5255 53.929 47.5248 53.9291 47.5241C53.9292 47.5233 53.9292 47.5226 53.9293 47.5219C53.9294 47.5212 53.9294 47.5204 53.9295 47.5197C53.9296 47.519 53.9296 47.5182 53.9297 47.5175C53.9298 47.5168 53.9298 47.516 53.9299 47.5153C53.93 47.5145 53.93 47.5138 53.9301 47.513C53.9302 47.5123 53.9302 47.5115 53.9303 47.5107C53.9304 47.51 53.9304 47.5092 53.9305 47.5084C53.9306 47.5077 53.9306 47.5069 53.9307 47.5061C53.9308 47.5053 53.9309 47.5046 53.9309 47.5038C53.931 47.503 53.9311 47.5022 53.9311 47.5014C53.9312 47.5006 53.9313 47.4998 53.9314 47.499C53.9314 47.4982 53.9315 47.4974 53.9316 47.4966C53.9317 47.4958 53.9317 47.495 53.9318 47.4941C53.9319 47.4933 53.932 47.4925 53.932 47.4917C53.9321 47.4908 53.9322 47.49 53.9323 47.4892C53.9323 47.4883 53.9324 47.4875 53.9325 47.4867C53.9326 47.4858 53.9326 47.485 53.9327 47.4841C53.9328 47.4833 53.9329 47.4824 53.933 47.4816C53.933 47.4807 53.9331 47.4799 53.9332 47.479C53.9333 47.4781 53.9333 47.4772 53.9334 47.4764C53.9335 47.4755 53.9336 47.4746 53.9337 47.4737C53.9337 47.4729 53.9338 47.472 53.9339 47.4711C53.934 47.4702 53.9341 47.4693 53.9342 47.4684C53.9342 47.4675 53.9343 47.4666 53.9344 47.4657C53.9345 47.4648 53.9346 47.4639 53.9346 47.463C53.9347 47.4621 53.9348 47.4612 53.9349 47.4602C53.935 47.4593 53.9351 47.4584 53.9351 47.4575C53.9352 47.4565 53.9353 47.4556 53.9354 47.4547C53.9355 47.4537 53.9356 47.4528 53.9357 47.4518C53.9357 47.4509 53.9358 47.4499 53.9359 47.449C53.936 47.448 53.9361 47.4471 53.9362 47.4461C53.9363 47.4452 53.9363 47.4442 53.9364 47.4432C53.9365 47.4423 53.9366 47.4413 53.9367 47.4403C53.9368 47.4393 53.9369 47.4384 53.937 47.4374C53.9371 47.4364 53.9371 47.4354 53.9372 47.4344C53.9373 47.4334 53.9374 47.4324 53.9375 47.4314C53.9376 47.4304 53.9377 47.4294 53.9378 47.4284C53.9379 47.4274 53.938 47.4264 53.9381 47.4254C53.9382 47.4244 53.9382 47.4234 53.9383 47.4223C53.9384 47.4213 53.9385 47.4203 53.9386 47.4193C53.9387 47.4182 53.9388 47.4172 53.9389 47.4162C53.939 47.4151 53.9391 47.4141 53.9392 47.413C53.9393 47.412 53.9394 47.4109 53.9395 47.4099C53.9396 47.4088 53.9397 47.4078 53.9398 47.4067C53.9399 47.4056 53.94 47.4046 53.94 47.4035C53.9401 47.4024 53.9402 47.4014 53.9403 47.4003C53.9404 47.3992 53.9405 47.3981 53.9406 47.397C53.9407 47.3959 53.9408 47.3949 53.9409 47.3938C53.941 47.3927 53.9411 47.3916 53.9412 47.3905C53.9413 47.3894 53.9414 47.3883 53.9415 47.3872C53.9416 47.386 53.9417 47.3849 53.9418 47.3838C53.9419 47.3827 53.942 47.3816 53.9421 47.3805C53.9422 47.3793 53.9423 47.3782 53.9425 47.3771C53.9426 47.3759 53.9427 47.3748 53.9428 47.3737C53.9429 47.3725 53.943 47.3714 53.9431 47.3702C53.9432 47.3691 53.9433 47.3679 53.9434 47.3668C53.9435 47.3656 53.9436 47.3644 53.9437 47.3633C53.9438 47.3621 53.9439 47.3609 53.944 47.3598C53.9441 47.3586 53.9442 47.3574 53.9443 47.3562C53.9445 47.3551 53.9446 47.3539 53.9447 47.3527C53.9448 47.3515 53.9449 47.3503 53.945 47.3491C53.9451 47.3479 53.9452 47.3467 53.9453 47.3455C53.9454 47.3443 53.9455 47.3431 53.9457 47.3419C53.9458 47.3407 53.9459 47.3395 53.946 47.3382C53.9461 47.337 53.9462 47.3358 53.9463 47.3346C53.9464 47.3334 53.9465 47.3321 53.9467 47.3309C53.9468 47.3297 53.9469 47.3284 53.947 47.3272C53.9471 47.3259 53.9472 47.3247 53.9473 47.3234C53.9474 47.3222 53.9476 47.3209 53.9477 47.3197C53.9478 47.3184 53.9479 47.3171 53.948 47.3159C53.9481 47.3146 53.9482 47.3133 53.9484 47.3121C53.9485 47.3108 53.9486 47.3095 53.9487 47.3082C53.9488 47.3069 53.9489 47.3057 53.9491 47.3044C53.9492 47.3031 53.9493 47.3018 53.9494 47.3005C53.9495 47.2992 53.9496 47.2979 53.9498 47.2966C53.9499 47.2953 53.95 47.294 53.9501 47.2926C53.9502 47.2913 53.9504 47.29 53.9505 47.2887C53.9506 47.2874 53.9507 47.286 53.9508 47.2847C53.951 47.2834 53.9511 47.2821 53.9512 47.2807C53.9513 47.2794 53.9515 47.278 53.9516 47.2767C53.9517 47.2753 53.9518 47.274 53.9519 47.2726C53.9521 47.2713 53.9522 47.2699 53.9523 47.2686C53.9524 47.2672 53.9526 47.2658 53.9527 47.2645C53.9528 47.2631 53.9529 47.2617 53.9531 47.2604C53.9532 47.259 53.9533 47.2576 53.9534 47.2562C53.9536 47.2548 53.9537 47.2534 53.9538 47.252C53.9539 47.2507 53.9541 47.2493 53.9542 47.2479C53.9543 47.2465 53.9545 47.2451 53.9546 47.2436C53.9547 47.2422 53.9548 47.2408 53.955 47.2394C53.9551 47.238 53.9552 47.2366 53.9554 47.2351C53.9555 47.2337 53.9556 47.2323 53.9557 47.2309C53.9559 47.2294 53.956 47.228 53.9561 47.2266C53.9563 47.2251 53.9564 47.2237 53.9565 47.2222C53.9567 47.2208 53.9568 47.2193 53.9569 47.2179C53.9571 47.2164 53.9572 47.215 53.9573 47.2135C53.9575 47.212 53.9576 47.2106 53.9577 47.2091C53.9579 47.2076 53.958 47.2061 53.9581 47.2047C53.9583 47.2032 53.9584 47.2017 53.9585 47.2002C53.9587 47.1987 53.9588 47.1972 53.9589 47.1957C53.9591 47.1942 53.9592 47.1927 53.9593 47.1912C53.9595 47.1897 53.9596 47.1882 53.9598 47.1867C53.9599 47.1852 53.96 47.1837 53.9602 47.1822C53.9603 47.1807 53.9604 47.1791 53.9606 47.1776C53.9607 47.1761 53.9609 47.1746 53.961 47.173C53.9611 47.1715 53.9613 47.17 53.9614 47.1684C53.9616 47.1669 53.9617 47.1653 53.9618 47.1638C53.962 47.1622 53.9621 47.1607 53.9623 47.1591C53.9624 47.1576 53.9626 47.156 53.9627 47.1544C53.9628 47.1529 53.963 47.1513 53.9631 47.1497C53.9633 47.1481 53.9634 47.1466 53.9636 47.145C53.9637 47.1434 53.9638 47.1418 53.964 47.1402C53.9641 47.1386 53.9643 47.137 53.9644 47.1354C53.9646 47.1339 53.9647 47.1323 53.9649 47.1306C53.965 47.129 53.9651 47.1274 53.9653 47.1258C53.9654 47.1242 53.9656 47.1226 53.9657 47.121C53.9659 47.1193 53.966 47.1177 53.9662 47.1161C53.9663 47.1145 53.9665 47.1128 53.9666 47.1112C53.9668 47.1096 53.9669 47.1079 53.9671 47.1063C53.9672 47.1046 53.9674 47.103 53.9675 47.1013C53.9677 47.0997 53.9678 47.098 53.968 47.0964C53.9681 47.0947 53.9683 47.093 53.9684 47.0914C53.9686 47.0897 53.9687 47.088 53.9689 47.0864C53.969 47.0847 53.9692 47.083 53.9693 47.0813C53.9695 47.0796 53.9696 47.0779 53.9698 47.0763C53.97 47.0746 53.9701 47.0729 53.9703 47.0712C53.9704 47.0695 53.9706 47.0678 53.9707 47.0661C53.9709 47.0643 53.971 47.0626 53.9712 47.0609C53.9713 47.0592 53.9715 47.0575 53.9717 47.0558C53.9718 47.054 53.972 47.0523 53.9721 47.0506C53.9723 47.0489 53.9725 47.0471 53.9726 47.0454C53.9728 47.0436 53.9729 47.0419 53.9731 47.0401C53.9732 47.0384 53.9734 47.0367 53.9736 47.0349C53.9737 47.0331 53.9739 47.0314 53.974 47.0296C53.9742 47.0279 53.9744 47.0261 53.9745 47.0243C53.9747 47.0226 53.9748 47.0208 53.975 47.019C53.9752 47.0172 53.9753 47.0154 53.9755 47.0137C53.9757 47.0119 53.9758 47.0101 53.976 47.0083C53.9761 47.0065 53.9763 47.0047 53.9765 47.0029C53.9766 47.0011 53.9768 46.9993 53.977 46.9975C53.9771 46.9957 53.9773 46.9939 53.9775 46.992C53.9776 46.9902 53.9778 46.9884 53.978 46.9866C53.9781 46.9847 53.9783 46.9829 53.9785 46.9811C53.9786 46.9792 53.9788 46.9774 53.979 46.9756C53.9791 46.9737 53.9793 46.9719 53.9795 46.97C53.9796 46.9682 53.9798 46.9663 53.98 46.9645C53.9801 46.9626 53.9803 46.9608 53.9805 46.9589C53.9806 46.957 53.9808 46.9552 53.981 46.9533C53.9811 46.9514 53.9813 46.9495 53.9815 46.9477C53.9817 46.9458 53.9818 46.9439 53.982 46.942C53.9822 46.9401 53.9823 46.9382 53.9825 46.9363C53.9827 46.9344 53.9829 46.9325 53.983 46.9306C53.9832 46.9287 53.9834 46.9268 53.9836 46.9249C53.9837 46.923 53.9839 46.9211 53.9841 46.9192C53.9843 46.9172 53.9844 46.9153 53.9846 46.9134C53.9848 46.9115 53.985 46.9095 53.9851 46.9076C53.9853 46.9057 53.9855 46.9037 53.9857 46.9018C53.9858 46.8998 53.986 46.8979 53.9862 46.8959C53.9864 46.894 53.9865 46.892 53.9867 46.8901C53.9869 46.8881 53.9871 46.8861 53.9873 46.8842C53.9874 46.8822 53.9876 46.8802 53.9878 46.8783C53.988 46.8763 53.9882 46.8743 53.9883 46.8723C53.9885 46.8703 53.9887 46.8684 53.9889 46.8664C53.9891 46.8644 53.9892 46.8624 53.9894 46.8604C53.9896 46.8584 53.9898 46.8564 53.99 46.8544C53.9902 46.8524 53.9903 46.8504 53.9905 46.8483C53.9907 46.8463 53.9909 46.8443 53.9911 46.8423C53.9913 46.8403 53.9914 46.8382 53.9916 46.8362C53.9918 46.8342 53.992 46.8322 53.9922 46.8301C53.9924 46.8281 53.9925 46.826 53.9927 46.824C53.9929 46.8219 53.9931 46.8199 53.9933 46.8178C53.9935 46.8158 53.9937 46.8137 53.9939 46.8117C53.994 46.8096 53.9942 46.8075 53.9944 46.8055C53.9946 46.8034 53.9948 46.8013 53.995 46.7993C53.9952 46.7972 53.9954 46.7951 53.9955 46.793C53.9957 46.7909 53.9959 46.7888 53.9961 46.7867C53.9963 46.7846 53.9965 46.7826 53.9967 46.7805C53.9969 46.7784 53.9971 46.7762 53.9973 46.7741C53.9975 46.772 53.9977 46.7699 53.9978 46.7678C53.998 46.7657 53.9982 46.7636 53.9984 46.7614C53.9986 46.7593 53.9988 46.7572 53.999 46.7551C53.9992 46.7529 53.9994 46.7508 53.9996 46.7486C53.9998 46.7465 54 46.7444 54.0002 46.7422C54.0004 46.7401 54.0006 46.7379 54.0008 46.7358C54.0009 46.7336 54.0011 46.7314 54.0013 46.7293C54.0015 46.7271 54.0017 46.7249 54.0019 46.7228C54.0021 46.7206 54.0023 46.7184 54.0025 46.7163C54.0027 46.7141 54.0029 46.7119 54.0031 46.7097C54.0033 46.7075 54.0035 46.7053 54.0037 46.7031C54.0039 46.7009 54.0041 46.6987 54.0043 46.6965C54.0045 46.6943 54.0047 46.6921 54.0049 46.6899C54.0051 46.6877 54.0053 46.6855 54.0055 46.6833C54.0057 46.681 54.0059 46.6788 54.0061 46.6766C54.0063 46.6744 54.0065 46.6721 54.0067 46.6699C54.0069 46.6677 54.0071 46.6654 54.0074 46.6632C54.0076 46.6609 54.0078 46.6587 54.008 46.6565C54.0082 46.6542 54.0084 46.6519 54.0086 46.6497C54.0088 46.6474 54.009 46.6452 54.0092 46.6429C54.0094 46.6406 54.0096 46.6384 54.0098 46.6361C54.01 46.6338 54.0102 46.6315 54.0104 46.6293C54.0106 46.627 54.0108 46.6247 54.0111 46.6224C54.0113 46.6201 54.0115 46.6178 54.0117 46.6155C54.0119 46.6132 54.0121 46.6109 54.0123 46.6086C54.0125 46.6063 54.0127 46.604 54.0129 46.6017C54.0132 46.5994 54.0134 46.5971 54.0136 46.5947C54.0138 46.5924 54.014 46.5901 54.0142 46.5878C54.0144 46.5854 54.0146 46.5831 54.0148 46.5808C54.0151 46.5784 54.0153 46.5761 54.0155 46.5737C54.0157 46.5714 54.0159 46.5691 54.0161 46.5667C54.0163 46.5643 54.0166 46.562 54.0168 46.5596C54.017 46.5573 54.0172 46.5549 54.0174 46.5525C54.0176 46.5502 54.0178 46.5478 54.0181 46.5454C54.0183 46.543 54.0185 46.5407 54.0187 46.5383C54.0189 46.5359 54.0191 46.5335 54.0194 46.5311C54.0196 46.5287 54.0198 46.5263 54.02 46.5239C54.0202 46.5215 54.0204 46.5191 54.0207 46.5167C54.0209 46.5143 54.0211 46.5119 54.0213 46.5095C54.0215 46.5071 54.0218 46.5047 54.022 46.5022C54.0222 46.4998 54.0224 46.4974 54.0226 46.4949C54.0229 46.4925 54.0231 46.4901 54.0233 46.4876C54.0235 46.4852 54.0238 46.4828 54.024 46.4803C54.0242 46.4779 54.0244 46.4754 54.0246 46.473C54.0249 46.4705 54.0251 46.468 54.0253 46.4656C54.0255 46.4631 54.0258 46.4607 54.026 46.4582C54.0262 46.4557 54.0264 46.4532 54.0267 46.4508C54.0269 46.4483 54.0271 46.4458 54.0273 46.4433C54.0276 46.4408 54.0278 46.4383 54.028 46.4358C54.0282 46.4333 54.0285 46.4309 54.0287 46.4283C54.0289 46.4258 54.0292 46.4233 54.0294 46.4208C54.0296 46.4183 54.0298 46.4158 54.0301 46.4133C54.0303 46.4108 54.0305 46.4082 54.0308 46.4057C54.031 46.4032 54.0312 46.4007 54.0314 46.3981C54.0317 46.3956 54.0319 46.3931 54.0321 46.3905C54.0324 46.388 54.0326 46.3854 54.0328 46.3829C54.0331 46.3803 54.0333 46.3778 54.0335 46.3752C54.0338 46.3727 54.034 46.3701 54.0342 46.3675C54.0345 46.365 54.0347 46.3624 54.0349 46.3598C54.0352 46.3573 54.0354 46.3547 54.0356 46.3521C54.0359 46.3495 54.0361 46.3469 54.0363 46.3444C54.0366 46.3418 54.0368 46.3392 54.037 46.3366C54.0373 46.334 54.0375 46.3314 54.0378 46.3288C54.038 46.3262 54.0382 46.3236 54.0385 46.321C54.0387 46.3183 54.0389 46.3157 54.0392 46.3131C54.0394 46.3105 54.0397 46.3079 54.0399 46.3052C54.0401 46.3026 54.0404 46.3 54.0406 46.2973C54.0409 46.2947 54.0411 46.2921 54.0413 46.2894C54.0416 46.2868 54.0418 46.2841 54.0421 46.2815C54.0423 46.2788 54.0425 46.2762 54.0428 46.2735C54.043 46.2709 54.0433 46.2682 54.0435 46.2655C54.0437 46.2629 54.044 46.2602 54.0442 46.2575C54.0445 46.2548 54.0447 46.2522 54.045 46.2495C54.0452 46.2468 54.0454 46.2441 54.0457 46.2414C54.0459 46.2387 54.0462 46.236 54.0464 46.2333C54.0467 46.2306 54.0469 46.2279 54.0472 46.2252C54.0474 46.2225 54.0477 46.2198 54.0479 46.2171C54.0482 46.2144 54.0484 46.2117 54.0486 46.2089C54.0489 46.2062 54.0491 46.2035 54.0494 46.2008C54.0496 46.198 54.0499 46.1953 54.0501 46.1926C54.0504 46.1898 54.0506 46.1871 54.0509 46.1843C54.0511 46.1816 54.0514 46.1788 54.0516 46.1761C54.0519 46.1733 54.0521 46.1706 54.0524 46.1678C54.0526 46.165 54.0529 46.1623 54.0531 46.1595C54.0534 46.1567 54.0536 46.154 54.0539 46.1512C54.0541 46.1484 54.0544 46.1456 54.0547 46.1428C54.0549 46.1401 54.0552 46.1373 54.0554 46.1345C54.0557 46.1317 54.0559 46.1289 54.0562 46.1261C54.0564 46.1233 54.0567 46.1205 54.0569 46.1177C54.0572 46.1149 54.0575 46.112 54.0577 46.1092C54.058 46.1064 54.0582 46.1036 54.0585 46.1008C54.0587 46.0979 54.059 46.0951 54.0592 46.0923C54.0595 46.0895 54.0598 46.0866 54.06 46.0838C54.0603 46.0809 54.0605 46.0781 54.0608 46.0752C54.0611 46.0724 54.0613 46.0695 54.0616 46.0667C54.0618 46.0638 54.0621 46.061 54.0624 46.0581C54.0626 46.0552 54.0629 46.0524 54.0631 46.0495C54.0634 46.0466 54.0637 46.0438 54.0639 46.0409C54.0642 46.038 54.0644 46.0351 54.0647 46.0322C54.065 46.0293 54.0652 46.0264 54.0655 46.0235C54.0658 46.0207 54.066 46.0178 54.0663 46.0149C54.0666 46.0119 54.0668 46.009 54.0671 46.0061C54.0673 46.0032 54.0676 46.0003 54.0679 45.9974C54.0681 45.9945 54.0684 45.9915 54.0687 45.9886C54.0689 45.9857 54.0692 45.9828 54.0695 45.9798C54.0697 45.9769 54.07 45.9739 54.0703 45.971C54.0705 45.9681 54.0708 45.9651 54.0711 45.9622C54.0714 45.9592 54.0716 45.9563 54.0719 45.9533C54.0722 45.9503 54.0724 45.9474 54.0727 45.9444C54.073 45.9415 54.0732 45.9385 54.0735 45.9355C54.0738 45.9325 54.074 45.9296 54.0743 45.9266C54.0746 45.9236 54.0749 45.9206 54.0751 45.9176C54.0754 45.9146 54.0757 45.9116 54.0759 45.9086C54.0762 45.9056 54.0765 45.9026 54.0768 45.8996C54.077 45.8966 54.0773 45.8936 54.0776 45.8906C54.0779 45.8876 54.0781 45.8846 54.0784 45.8815C54.0787 45.8785 54.079 45.8755 54.0792 45.8725C54.0795 45.8694 54.0798 45.8664 54.0801 45.8634C54.0803 45.8603 54.0806 45.8573 54.0809 45.8543C54.0812 45.8512 54.0814 45.8482 54.0817 45.8451C54.082 45.8421 54.0823 45.839 54.0826 45.8359C54.0828 45.8329 54.0831 45.8298 54.0834 45.8267C54.0837 45.8237 54.084 45.8206 54.0842 45.8175C54.0845 45.8144 54.0848 45.8114 54.0851 45.8083C54.0854 45.8052 54.0856 45.8021 54.0859 45.799C54.0862 45.7959 54.0865 45.7928 54.0868 45.7897C54.087 45.7866 54.0873 45.7835 54.0876 45.7804C54.0879 45.7773 54.0882 45.7742 54.0885 45.7711C54.0887 45.768 54.089 45.7649 54.0893 45.7617C54.0896 45.7586 54.0899 45.7555 54.0902 45.7523C54.0904 45.7492 54.0907 45.7461 54.091 45.7429C54.0913 45.7398 54.0916 45.7367 54.0919 45.7335C54.0922 45.7304 54.0924 45.7272 54.0927 45.7241C54.093 45.7209 54.0933 45.7177 54.0936 45.7146C54.0939 45.7114 54.0942 45.7083 54.0945 45.7051C54.0947 45.7019 54.095 45.6987 54.0953 45.6956C54.0956 45.6924 54.0959 45.6892 54.0962 45.686C54.0965 45.6828 54.0968 45.6796 54.0971 45.6764C54.0973 45.6732 54.0976 45.67 54.0979 45.6668C54.0982 45.6636 54.0985 45.6604 54.0988 45.6572C54.0991 45.654 54.0994 45.6508 54.0997 45.6476C54.1 45.6444 54.1003 45.6411 54.1006 45.6379C54.1008 45.6347 54.1011 45.6315 54.1014 45.6282C54.1017 45.625 54.102 45.6218 54.1023 45.6185C54.1026 45.6153 54.1029 45.612 54.1032 45.6088C54.1035 45.6055 54.1038 45.6023 54.1041 45.599C54.1044 45.5958 54.1047 45.5925 54.105 45.5892C54.1053 45.586 54.1056 45.5827 54.1059 45.5794C54.1062 45.5762 54.1065 45.5729 54.1068 45.5696C54.1071 45.5663 54.1074 45.563 54.1077 45.5597C54.108 45.5565 54.1083 45.5532 54.1086 45.5499C54.1089 45.5466 54.1092 45.5433 54.1095 45.54C54.1098 45.5367 54.1101 45.5333 54.1104 45.53C54.1107 45.5267 54.111 45.5234 54.1113 45.5201C54.1116 45.5168 54.1119 45.5134 54.1122 45.5101C54.1125 45.5068 54.1128 45.5035 54.1131 45.5001C54.1134 45.4968 54.1137 45.4934 54.114 45.4901C54.1143 45.4868 54.1146 45.4834 54.1149 45.4801C54.1152 45.4767 54.1155 45.4734 54.1158 45.47C54.1161 45.4666 54.1164 45.4633 54.1167 45.4599C54.117 45.4565 54.1174 45.4532 54.1177 45.4498C54.118 45.4464 54.1183 45.443 54.1186 45.4396C54.1189 45.4363 54.1192 45.4329 54.1195 45.4295C54.1198 45.4261 54.1201 45.4227 54.1204 45.4193C54.1207 45.4159 54.1211 45.4125 54.1214 45.4091C54.1217 45.4057 54.122 45.4023 54.1223 45.3989C54.1226 45.3954 54.1229 45.392 54.1232 45.3886C54.1235 45.3852 54.1238 45.3818 54.1242 45.3783C54.1245 45.3749 54.1248 45.3715 54.1251 45.368C54.1254 45.3646 54.1257 45.3611 54.126 45.3577C54.1263 45.3543 54.1267 45.3508 54.127 45.3473C54.1273 45.3439 54.1276 45.3404 54.1279 45.337C54.1282 45.3335 54.1285 45.33 54.1289 45.3266C54.1292 45.3231 54.1295 45.3196 54.1298 45.3162C54.1301 45.3127 54.1304 45.3092 54.1308 45.3057C54.1311 45.3022 54.1314 45.2987 54.1317 45.2952C54.132 45.2917 54.1323 45.2882 54.1327 45.2848C54.133 45.2812 54.1333 45.2777 54.1336 45.2742C54.1339 45.2707 54.1343 45.2672 54.1346 45.2637C54.1349 45.2602 54.1352 45.2567 54.1355 45.2531C54.1359 45.2496 54.1362 45.2461 54.1365 45.2425C54.1368 45.239 54.1371 45.2355 54.1375 45.2319C54.1378 45.2284 54.1381 45.2249 54.1384 45.2213C54.1388 45.2178 54.1391 45.2142 54.1394 45.2106C54.1397 45.2071 54.14 45.2035 54.1404 45.2C54.1407 45.1964 54.141 45.1928 54.1413 45.1893C54.1417 45.1857 54.142 45.1821 54.1423 45.1785C54.1426 45.175 54.143 45.1714 54.1433 45.1678C54.1436 45.1642 54.144 45.1606 54.1443 45.157C54.1446 45.1534 54.1449 45.1498 54.1453 45.1462C54.1456 45.1426 54.1459 45.139 54.1462 45.1354C54.1466 45.1318 54.1469 45.1282 54.1472 45.1245C54.1476 45.1209 54.1479 45.1173 54.1482 45.1137C54.1485 45.11 54.1489 45.1064 54.1492 45.1028C54.1495 45.0991 54.1499 45.0955 54.1502 45.0919C54.1505 45.0882 54.1509 45.0846 54.1512 45.0809C54.1515 45.0773 54.1519 45.0736 54.1522 45.07C54.1525 45.0663 54.1529 45.0626 54.1532 45.059C54.1535 45.0553 54.1539 45.0516 54.1542 45.048C54.1545 45.0443 54.1549 45.0406 54.1552 45.0369C54.1555 45.0332 54.1559 45.0296 54.1562 45.0259C54.1565 45.0222 54.1569 45.0185 54.1572 45.0148C54.1575 45.0111 54.1579 45.0074 54.1582 45.0037C54.1586 45 54.1589 44.9963 54.1592 44.9925C54.1596 44.9888 54.1599 44.9851 54.1602 44.9814C54.1606 44.9777 54.1609 44.974 54.1613 44.9702C54.1616 44.9665 54.1619 44.9628 54.1623 44.959C54.1626 44.9553 54.163 44.9515 54.1633 44.9478C54.1636 44.9441 54.164 44.9403 54.1643 44.9366C54.1647 44.9328 54.165 44.929 54.1653 44.9253C54.1657 44.9215 54.166 44.9178 54.1664 44.914C54.1667 44.9102 54.1671 44.9064 54.1674 44.9027C54.1677 44.8989 54.1681 44.8951 54.1684 44.8913C54.1688 44.8875 54.1691 44.8838 54.1695 44.88C54.1698 44.8762 54.1702 44.8724 54.1705 44.8686C54.1708 44.8648 54.1712 44.861 54.1715 44.8572C54.1719 44.8534 54.1722 44.8495 54.1726 44.8457C54.1729 44.8419 54.1733 44.8381 54.1736 44.8343C54.174 44.8304 54.1743 44.8266 54.1747 44.8228C54.175 44.819 54.1754 44.8151 54.1757 44.8113C54.1761 44.8074 54.1764 44.8036 54.1768 44.7997C54.1771 44.7959 54.1775 44.792 54.1778 44.7882C54.1782 44.7843 54.1785 44.7805 54.1789 44.7766C54.1792 44.7728 54.1796 44.7689 54.1799 44.765C54.1803 44.7611 54.1806 44.7573 54.181 44.7534C54.1813 44.7495 54.1817 44.7456 54.182 44.7417C54.1824 44.7379 54.1827 44.734 54.1831 44.7301C54.1834 44.7262 54.1838 44.7223 54.1842 44.7184C54.1845 44.7145 54.1849 44.7106 54.1852 44.7067C54.1856 44.7027 54.1859 44.6988 54.1863 44.6949C54.1866 44.691 54.187 44.6871 54.1874 44.6831C54.1877 44.6792 54.1881 44.6753 54.1884 44.6714C54.1888 44.6674 54.1891 44.6635 54.1895 44.6595C54.1899 44.6556 54.1902 44.6517 54.1906 44.6477C54.1909 44.6438 54.1913 44.6398 54.1917 44.6358C54.192 44.6319 54.1924 44.6279 54.1927 44.624C54.1931 44.62 54.1935 44.616 54.1938 44.6121C54.1942 44.6081 54.1945 44.6041 54.1949 44.6001C54.1953 44.5961 54.1956 44.5922 54.196 44.5882C54.1964 44.5842 54.1967 44.5802 54.1971 44.5762C54.1974 44.5722 54.1978 44.5682 54.1982 44.5642C54.1985 44.5602 54.1989 44.5562 54.1993 44.5522C54.1996 44.5481 54.2 44.5441 54.2004 44.5401C54.2007 44.5361 54.2011 44.5321 54.2015 44.528L52.2097 44.347ZM51.9243 47.5312C51.9243 48.644 51.9561 49.787 52.0195 50.9602L54.0166 50.8523C53.955 49.713 53.9243 48.606 53.9243 47.5312H51.9243ZM52.0215 50.9893C52.1174 52.1394 52.2609 53.3343 52.4516 54.5739L54.4283 54.2698C54.244 53.0719 54.1063 51.9231 54.0146 50.8232L52.0215 50.9893ZM52.4509 54.5695C52.7627 56.6588 52.9792 58.2682 53.102 59.4044L55.0904 59.1894C54.9632 58.0131 54.7421 56.3725 54.429 54.2743L52.4509 54.5695ZM53.1057 59.4344C53.2608 60.5511 53.3569 61.2254 53.391 61.43L55.3638 61.1012C55.3354 60.9308 55.2441 60.2927 55.0867 59.1593L53.1057 59.4344ZM53.3834 61.3746L56.3834 88.7496L58.3715 88.5317L55.3715 61.1567L53.3834 61.3746ZM46.5152 46.0963L46.2808 43.0026L44.2865 43.1537L44.5209 46.2474L46.5152 46.0963ZM45.352 42.0805L21.3989 40.4398L21.2622 42.4352L45.2154 44.0758L45.352 42.0805ZM20.3311 41.4691L20.5654 48.8754L22.5644 48.8121L22.3301 41.4059L20.3311 41.4691ZM21.6758 49.8376L45.6289 47.1657L45.4072 45.178L21.4541 47.8499L21.6758 49.8376Z" fill="black" mask="url(#path-3-outside-2_22_12)"/>
</g>
<defs>
<filter id="filter0_d_22_12" x="12.1809" y="16.3629" width="103.395" height="101.973" filterUnits="userSpaceOnUse" color-interpolation-filters="sRGB">
<feFlood flood-opacity="0" result="BackgroundImageFix"/>
<feColorMatrix in="SourceAlpha" type="matrix" values="0 0 0 0 0 0 0 0 0 0 0 0 0 0 0 0 0 0 127 0" result="hardAlpha"/>
<feOffset dy="4"/>
<feGaussianBlur stdDeviation="2"/>
<feComposite in2="hardAlpha" operator="out"/>
<feColorMatrix type="matrix" values="0 0 0 0 0 0 0 0 0 0 0 0 0 0 0 0 0 0 0.25 0"/>
<feBlend mode="normal" in2="BackgroundImageFix" result="effect1_dropShadow_22_12"/>
<feBlend mode="normal" in="SourceGraphic" in2="effect1_dropShadow_22_12" result="shape"/>
</filter>
<filter id="filter1_d_22_12" x="0.166443" y="8.03986" width="62.3191" height="93.5286" filterUnits="userSpaceOnUse" color-interpolation-filters="sRGB">
<feFlood flood-opacity="0" result="BackgroundImageFix"/>
<feColorMatrix in="SourceAlpha" type="matrix" values="0 0 0 0 0 0 0 0 0 0 0 0 0 0 0 0 0 0 127 0" result="hardAlpha"/>
<feOffset dy="4"/>
<feGaussianBlur stdDeviation="2"/>
<feComposite in2="hardAlpha" operator="out"/>
<feColorMatrix type="matrix" values="0 0 0 0 0 0 0 0 0 0 0 0 0 0 0 0 0 0 0.25 0"/>
<feBlend mode="normal" in2="BackgroundImageFix" result="effect1_dropShadow_22_12"/>
<feBlend mode="normal" in="SourceGraphic" in2="effect1_dropShadow_22_12" result="shape"/>
</filter>
</defs>
</svg>
